<?xml version="1.0" encoding="UTF-8"?><svg xmlns="http://www.w3.org/2000/svg" xmlns:xlink="http://www.w3.org/1999/xlink" contentScriptType="text/ecmascript" width="180pt" zoomAndPan="magnify" contentStyleType="text/css" viewBox="0 0 180 52.499999" height="52.499999pt" preserveAspectRatio="xMidYMid meet" version="1.2"><defs><g/><clipPath xml:id="clip1" id="clip1"><path d="M 15 26 L 43 26 L 43 52 L 15 52 Z M 15 26 "/></clipPath><clipPath xml:id="clip2" id="clip2"><path d="M 15.90625 26.40625 C 15.90625 26.40625 23.03125 38.109375 23.402344 51.988281 L 35.898438 51.988281 C 35.898438 51.988281 38.136719 32.394531 42.277344 26.40625 L 37.046875 26.40625 C 37.046875 26.40625 33.777344 33.753906 32.46875 41.917969 C 32.46875 41.917969 32.46875 32.394531 30.074219 26.40625 L 25.929688 26.40625 C 25.929688 26.40625 27.457031 33.753906 26.585938 40.832031 C 26.585938 40.832031 24.40625 31.304688 20.917969 26.40625 Z M 15.90625 26.40625 "/></clipPath><linearGradient x1="212.60001" gradientTransform="matrix(0.225578,0,0,0.22581,-18.866488,-21.62102)" xmlns:xlink="http://www.w3.org/1999/xlink" y1="212.68497" x2="212.60001" gradientUnits="userSpaceOnUse" y2="325.985978" xlink:type="simple" xlink:actuate="onLoad" id="linear0" xlink:show="other" xml:id="linear0"><stop style="stop-color:rgb(49.398804%,85.099792%,34.098816%);stop-opacity:1;" offset="0"/><stop style="stop-color:rgb(49.398804%,85.099792%,34.098816%);stop-opacity:1;" offset="0.125"/><stop style="stop-color:rgb(49.398804%,85.099792%,34.098816%);stop-opacity:1;" offset="0.15625"/><stop style="stop-color:rgb(49.331665%,85.075378%,34.153748%);stop-opacity:1;" offset="0.164062"/><stop style="stop-color:rgb(49.012756%,84.960938%,34.411621%);stop-opacity:1;" offset="0.167969"/><stop style="stop-color:rgb(48.762512%,84.872437%,34.614563%);stop-opacity:1;" offset="0.171875"/><stop style="stop-color:rgb(48.510742%,84.78241%,34.817505%);stop-opacity:1;" offset="0.175781"/><stop style="stop-color:rgb(48.260498%,84.693909%,35.021973%);stop-opacity:1;" offset="0.179688"/><stop style="stop-color:rgb(48.008728%,84.603882%,35.224915%);stop-opacity:1;" offset="0.183594"/><stop style="stop-color:rgb(47.758484%,84.513855%,35.427856%);stop-opacity:1;" offset="0.1875"/><stop style="stop-color:rgb(47.506714%,84.423828%,35.630798%);stop-opacity:1;" offset="0.191406"/><stop style="stop-color:rgb(47.25647%,84.335327%,35.83374%);stop-opacity:1;" offset="0.195312"/><stop style="stop-color:rgb(47.0047%,84.2453%,36.036682%);stop-opacity:1;" offset="0.199219"/><stop style="stop-color:rgb(46.754456%,84.156799%,36.24115%);stop-opacity:1;" offset="0.203125"/><stop style="stop-color:rgb(46.502686%,84.066772%,36.444092%);stop-opacity:1;" offset="0.207031"/><stop style="stop-color:rgb(46.252441%,83.978271%,36.647034%);stop-opacity:1;" offset="0.210938"/><stop style="stop-color:rgb(46.000671%,83.888245%,36.849976%);stop-opacity:1;" offset="0.214844"/><stop style="stop-color:rgb(45.750427%,83.799744%,37.054443%);stop-opacity:1;" offset="0.21875"/><stop style="stop-color:rgb(45.498657%,83.709717%,37.257385%);stop-opacity:1;" offset="0.222656"/><stop style="stop-color:rgb(45.248413%,83.621216%,37.460327%);stop-opacity:1;" offset="0.226562"/><stop style="stop-color:rgb(44.996643%,83.531189%,37.663269%);stop-opacity:1;" offset="0.230469"/><stop style="stop-color:rgb(44.746399%,83.441162%,37.866211%);stop-opacity:1;" offset="0.234375"/><stop style="stop-color:rgb(44.494629%,83.351135%,38.069153%);stop-opacity:1;" offset="0.238281"/><stop style="stop-color:rgb(44.244385%,83.262634%,38.273621%);stop-opacity:1;" offset="0.242188"/><stop style="stop-color:rgb(43.992615%,83.172607%,38.476562%);stop-opacity:1;" offset="0.246094"/><stop style="stop-color:rgb(43.742371%,83.084106%,38.679504%);stop-opacity:1;" offset="0.25"/><stop style="stop-color:rgb(43.490601%,82.99408%,38.882446%);stop-opacity:1;" offset="0.253906"/><stop style="stop-color:rgb(43.240356%,82.905579%,39.085388%);stop-opacity:1;" offset="0.257812"/><stop style="stop-color:rgb(42.988586%,82.815552%,39.28833%);stop-opacity:1;" offset="0.261719"/><stop style="stop-color:rgb(42.738342%,82.727051%,39.492798%);stop-opacity:1;" offset="0.265625"/><stop style="stop-color:rgb(42.486572%,82.637024%,39.69574%);stop-opacity:1;" offset="0.269531"/><stop style="stop-color:rgb(42.236328%,82.546997%,39.898682%);stop-opacity:1;" offset="0.273438"/><stop style="stop-color:rgb(41.984558%,82.45697%,40.101624%);stop-opacity:1;" offset="0.277344"/><stop style="stop-color:rgb(41.734314%,82.368469%,40.304565%);stop-opacity:1;" offset="0.28125"/><stop style="stop-color:rgb(41.48407%,82.278442%,40.507507%);stop-opacity:1;" offset="0.285156"/><stop style="stop-color:rgb(41.233826%,82.189941%,40.711975%);stop-opacity:1;" offset="0.289062"/><stop style="stop-color:rgb(40.982056%,82.099915%,40.914917%);stop-opacity:1;" offset="0.292969"/><stop style="stop-color:rgb(40.731812%,82.011414%,41.117859%);stop-opacity:1;" offset="0.296875"/><stop style="stop-color:rgb(40.480042%,81.921387%,41.320801%);stop-opacity:1;" offset="0.300781"/><stop style="stop-color:rgb(40.229797%,81.832886%,41.523743%);stop-opacity:1;" offset="0.304688"/><stop style="stop-color:rgb(39.978027%,81.742859%,41.726685%);stop-opacity:1;" offset="0.308594"/><stop style="stop-color:rgb(39.727783%,81.652832%,41.931152%);stop-opacity:1;" offset="0.3125"/><stop style="stop-color:rgb(39.476013%,81.562805%,42.134094%);stop-opacity:1;" offset="0.316406"/><stop style="stop-color:rgb(39.225769%,81.474304%,42.337036%);stop-opacity:1;" offset="0.320312"/><stop style="stop-color:rgb(38.973999%,81.384277%,42.539978%);stop-opacity:1;" offset="0.324219"/><stop style="stop-color:rgb(38.723755%,81.295776%,42.74292%);stop-opacity:1;" offset="0.328125"/><stop style="stop-color:rgb(38.471985%,81.20575%,42.945862%);stop-opacity:1;" offset="0.332031"/><stop style="stop-color:rgb(38.221741%,81.117249%,43.15033%);stop-opacity:1;" offset="0.335938"/><stop style="stop-color:rgb(37.969971%,81.027222%,43.353271%);stop-opacity:1;" offset="0.339844"/><stop style="stop-color:rgb(37.719727%,80.938721%,43.556213%);stop-opacity:1;" offset="0.34375"/><stop style="stop-color:rgb(37.467957%,80.848694%,43.759155%);stop-opacity:1;" offset="0.347656"/><stop style="stop-color:rgb(37.217712%,80.758667%,43.963623%);stop-opacity:1;" offset="0.351562"/><stop style="stop-color:rgb(36.965942%,80.66864%,44.166565%);stop-opacity:1;" offset="0.355469"/><stop style="stop-color:rgb(36.715698%,80.580139%,44.369507%);stop-opacity:1;" offset="0.359375"/><stop style="stop-color:rgb(36.463928%,80.490112%,44.572449%);stop-opacity:1;" offset="0.363281"/><stop style="stop-color:rgb(36.213684%,80.401611%,44.775391%);stop-opacity:1;" offset="0.367188"/><stop style="stop-color:rgb(35.961914%,80.311584%,44.978333%);stop-opacity:1;" offset="0.371094"/><stop style="stop-color:rgb(35.71167%,80.223083%,45.1828%);stop-opacity:1;" offset="0.375"/><stop style="stop-color:rgb(35.4599%,80.133057%,45.385742%);stop-opacity:1;" offset="0.378906"/><stop style="stop-color:rgb(35.209656%,80.044556%,45.588684%);stop-opacity:1;" offset="0.382812"/><stop style="stop-color:rgb(34.957886%,79.954529%,45.791626%);stop-opacity:1;" offset="0.386719"/><stop style="stop-color:rgb(34.707642%,79.864502%,45.994568%);stop-opacity:1;" offset="0.390625"/><stop style="stop-color:rgb(34.455872%,79.774475%,46.19751%);stop-opacity:1;" offset="0.394531"/><stop style="stop-color:rgb(34.205627%,79.685974%,46.401978%);stop-opacity:1;" offset="0.398438"/><stop style="stop-color:rgb(33.953857%,79.595947%,46.604919%);stop-opacity:1;" offset="0.402344"/><stop style="stop-color:rgb(33.703613%,79.507446%,46.807861%);stop-opacity:1;" offset="0.40625"/><stop style="stop-color:rgb(33.451843%,79.417419%,47.010803%);stop-opacity:1;" offset="0.410156"/><stop style="stop-color:rgb(33.201599%,79.328918%,47.213745%);stop-opacity:1;" offset="0.414062"/><stop style="stop-color:rgb(32.949829%,79.238892%,47.416687%);stop-opacity:1;" offset="0.417969"/><stop style="stop-color:rgb(32.699585%,79.150391%,47.621155%);stop-opacity:1;" offset="0.421875"/><stop style="stop-color:rgb(32.447815%,79.060364%,47.824097%);stop-opacity:1;" offset="0.425781"/><stop style="stop-color:rgb(32.197571%,78.970337%,48.027039%);stop-opacity:1;" offset="0.429688"/><stop style="stop-color:rgb(31.945801%,78.88031%,48.22998%);stop-opacity:1;" offset="0.433594"/><stop style="stop-color:rgb(31.695557%,78.791809%,48.432922%);stop-opacity:1;" offset="0.4375"/><stop style="stop-color:rgb(31.445312%,78.701782%,48.635864%);stop-opacity:1;" offset="0.441406"/><stop style="stop-color:rgb(31.195068%,78.613281%,48.840332%);stop-opacity:1;" offset="0.445313"/><stop style="stop-color:rgb(30.943298%,78.523254%,49.043274%);stop-opacity:1;" offset="0.449219"/><stop style="stop-color:rgb(30.693054%,78.434753%,49.246216%);stop-opacity:1;" offset="0.453125"/><stop style="stop-color:rgb(30.441284%,78.344727%,49.449158%);stop-opacity:1;" offset="0.457031"/><stop style="stop-color:rgb(30.19104%,78.256226%,49.653625%);stop-opacity:1;" offset="0.460938"/><stop style="stop-color:rgb(29.93927%,78.166199%,49.856567%);stop-opacity:1;" offset="0.464844"/><stop style="stop-color:rgb(29.689026%,78.076172%,50.059509%);stop-opacity:1;" offset="0.46875"/><stop style="stop-color:rgb(29.437256%,77.986145%,50.262451%);stop-opacity:1;" offset="0.472656"/><stop style="stop-color:rgb(29.187012%,77.897644%,50.465393%);stop-opacity:1;" offset="0.476562"/><stop style="stop-color:rgb(28.935242%,77.807617%,50.668335%);stop-opacity:1;" offset="0.480469"/><stop style="stop-color:rgb(28.684998%,77.719116%,50.872803%);stop-opacity:1;" offset="0.484375"/><stop style="stop-color:rgb(28.433228%,77.629089%,51.075745%);stop-opacity:1;" offset="0.488281"/><stop style="stop-color:rgb(28.182983%,77.540588%,51.278687%);stop-opacity:1;" offset="0.492188"/><stop style="stop-color:rgb(27.931213%,77.450562%,51.481628%);stop-opacity:1;" offset="0.496094"/><stop style="stop-color:rgb(27.680969%,77.362061%,51.68457%);stop-opacity:1;" offset="0.5"/><stop style="stop-color:rgb(27.429199%,77.272034%,51.887512%);stop-opacity:1;" offset="0.503906"/><stop style="stop-color:rgb(27.178955%,77.182007%,52.09198%);stop-opacity:1;" offset="0.507812"/><stop style="stop-color:rgb(26.927185%,77.09198%,52.294922%);stop-opacity:1;" offset="0.511719"/><stop style="stop-color:rgb(26.676941%,77.003479%,52.497864%);stop-opacity:1;" offset="0.515625"/><stop style="stop-color:rgb(26.425171%,76.913452%,52.700806%);stop-opacity:1;" offset="0.519531"/><stop style="stop-color:rgb(26.174927%,76.824951%,52.903748%);stop-opacity:1;" offset="0.523438"/><stop style="stop-color:rgb(25.923157%,76.734924%,53.106689%);stop-opacity:1;" offset="0.527344"/><stop style="stop-color:rgb(25.672913%,76.646423%,53.311157%);stop-opacity:1;" offset="0.53125"/><stop style="stop-color:rgb(25.421143%,76.556396%,53.514099%);stop-opacity:1;" offset="0.535156"/><stop style="stop-color:rgb(25.170898%,76.467896%,53.717041%);stop-opacity:1;" offset="0.539062"/><stop style="stop-color:rgb(24.919128%,76.377869%,53.919983%);stop-opacity:1;" offset="0.542969"/><stop style="stop-color:rgb(24.668884%,76.287842%,54.122925%);stop-opacity:1;" offset="0.546875"/><stop style="stop-color:rgb(24.417114%,76.197815%,54.325867%);stop-opacity:1;" offset="0.550781"/><stop style="stop-color:rgb(24.16687%,76.109314%,54.530334%);stop-opacity:1;" offset="0.554688"/><stop style="stop-color:rgb(23.9151%,76.019287%,54.733276%);stop-opacity:1;" offset="0.558594"/><stop style="stop-color:rgb(23.664856%,75.930786%,54.936218%);stop-opacity:1;" offset="0.5625"/><stop style="stop-color:rgb(23.413086%,75.840759%,55.13916%);stop-opacity:1;" offset="0.566406"/><stop style="stop-color:rgb(23.162842%,75.752258%,55.342102%);stop-opacity:1;" offset="0.570312"/><stop style="stop-color:rgb(22.911072%,75.662231%,55.545044%);stop-opacity:1;" offset="0.574219"/><stop style="stop-color:rgb(22.660828%,75.57373%,55.749512%);stop-opacity:1;" offset="0.578125"/><stop style="stop-color:rgb(22.409058%,75.483704%,55.952454%);stop-opacity:1;" offset="0.582031"/><stop style="stop-color:rgb(22.158813%,75.393677%,56.155396%);stop-opacity:1;" offset="0.585937"/><stop style="stop-color:rgb(21.908569%,75.30365%,56.358337%);stop-opacity:1;" offset="0.589844"/><stop style="stop-color:rgb(21.658325%,75.215149%,56.562805%);stop-opacity:1;" offset="0.59375"/><stop style="stop-color:rgb(21.406555%,75.125122%,56.765747%);stop-opacity:1;" offset="0.597656"/><stop style="stop-color:rgb(21.156311%,75.036621%,56.968689%);stop-opacity:1;" offset="0.601562"/><stop style="stop-color:rgb(20.904541%,74.946594%,57.171631%);stop-opacity:1;" offset="0.605469"/><stop style="stop-color:rgb(20.654297%,74.858093%,57.374573%);stop-opacity:1;" offset="0.609375"/><stop style="stop-color:rgb(20.402527%,74.768066%,57.577515%);stop-opacity:1;" offset="0.613281"/><stop style="stop-color:rgb(20.152283%,74.679565%,57.781982%);stop-opacity:1;" offset="0.617188"/><stop style="stop-color:rgb(19.900513%,74.589539%,57.984924%);stop-opacity:1;" offset="0.621094"/><stop style="stop-color:rgb(19.650269%,74.499512%,58.187866%);stop-opacity:1;" offset="0.625"/><stop style="stop-color:rgb(19.398499%,74.409485%,58.390808%);stop-opacity:1;" offset="0.628906"/><stop style="stop-color:rgb(19.148254%,74.320984%,58.59375%);stop-opacity:1;" offset="0.632812"/><stop style="stop-color:rgb(18.896484%,74.230957%,58.796692%);stop-opacity:1;" offset="0.636719"/><stop style="stop-color:rgb(18.64624%,74.142456%,59.00116%);stop-opacity:1;" offset="0.640625"/><stop style="stop-color:rgb(18.39447%,74.052429%,59.204102%);stop-opacity:1;" offset="0.644531"/><stop style="stop-color:rgb(18.144226%,73.963928%,59.407043%);stop-opacity:1;" offset="0.648438"/><stop style="stop-color:rgb(17.892456%,73.873901%,59.609985%);stop-opacity:1;" offset="0.652344"/><stop style="stop-color:rgb(17.642212%,73.7854%,59.812927%);stop-opacity:1;" offset="0.65625"/><stop style="stop-color:rgb(17.390442%,73.695374%,60.015869%);stop-opacity:1;" offset="0.660156"/><stop style="stop-color:rgb(17.140198%,73.606873%,60.220337%);stop-opacity:1;" offset="0.664062"/><stop style="stop-color:rgb(16.888428%,73.516846%,60.423279%);stop-opacity:1;" offset="0.667969"/><stop style="stop-color:rgb(16.638184%,73.426819%,60.626221%);stop-opacity:1;" offset="0.671875"/><stop style="stop-color:rgb(16.386414%,73.336792%,60.829163%);stop-opacity:1;" offset="0.675781"/><stop style="stop-color:rgb(16.136169%,73.248291%,61.032104%);stop-opacity:1;" offset="0.679688"/><stop style="stop-color:rgb(15.884399%,73.158264%,61.235046%);stop-opacity:1;" offset="0.683594"/><stop style="stop-color:rgb(15.634155%,73.069763%,61.439514%);stop-opacity:1;" offset="0.6875"/><stop style="stop-color:rgb(15.382385%,72.979736%,61.642456%);stop-opacity:1;" offset="0.691406"/><stop style="stop-color:rgb(15.132141%,72.891235%,61.845398%);stop-opacity:1;" offset="0.695312"/><stop style="stop-color:rgb(14.880371%,72.801208%,62.04834%);stop-opacity:1;" offset="0.699219"/><stop style="stop-color:rgb(14.630127%,72.712708%,62.252808%);stop-opacity:1;" offset="0.703125"/><stop style="stop-color:rgb(14.378357%,72.622681%,62.45575%);stop-opacity:1;" offset="0.707031"/><stop style="stop-color:rgb(14.128113%,72.532654%,62.658691%);stop-opacity:1;" offset="0.710938"/><stop style="stop-color:rgb(13.876343%,72.442627%,62.861633%);stop-opacity:1;" offset="0.714844"/><stop style="stop-color:rgb(13.626099%,72.354126%,63.064575%);stop-opacity:1;" offset="0.71875"/><stop style="stop-color:rgb(13.374329%,72.264099%,63.267517%);stop-opacity:1;" offset="0.722656"/><stop style="stop-color:rgb(13.124084%,72.175598%,63.471985%);stop-opacity:1;" offset="0.726563"/><stop style="stop-color:rgb(12.872314%,72.085571%,63.674927%);stop-opacity:1;" offset="0.730469"/><stop style="stop-color:rgb(12.62207%,71.99707%,63.877869%);stop-opacity:1;" offset="0.734375"/><stop style="stop-color:rgb(12.371826%,71.907043%,64.080811%);stop-opacity:1;" offset="0.738281"/><stop style="stop-color:rgb(12.121582%,71.818542%,64.283752%);stop-opacity:1;" offset="0.742188"/><stop style="stop-color:rgb(11.869812%,71.728516%,64.486694%);stop-opacity:1;" offset="0.746094"/><stop style="stop-color:rgb(11.619568%,71.638489%,64.691162%);stop-opacity:1;" offset="0.75"/><stop style="stop-color:rgb(11.367798%,71.548462%,64.894104%);stop-opacity:1;" offset="0.753906"/><stop style="stop-color:rgb(11.117554%,71.459961%,65.097046%);stop-opacity:1;" offset="0.757812"/><stop style="stop-color:rgb(10.865784%,71.369934%,65.299988%);stop-opacity:1;" offset="0.761719"/><stop style="stop-color:rgb(10.61554%,71.281433%,65.50293%);stop-opacity:1;" offset="0.765625"/><stop style="stop-color:rgb(10.36377%,71.191406%,65.705872%);stop-opacity:1;" offset="0.769531"/><stop style="stop-color:rgb(10.113525%,71.102905%,65.910339%);stop-opacity:1;" offset="0.773437"/><stop style="stop-color:rgb(9.861755%,71.012878%,66.113281%);stop-opacity:1;" offset="0.777344"/><stop style="stop-color:rgb(9.611511%,70.924377%,66.316223%);stop-opacity:1;" offset="0.78125"/><stop style="stop-color:rgb(9.359741%,70.834351%,66.519165%);stop-opacity:1;" offset="0.785156"/><stop style="stop-color:rgb(9.109497%,70.744324%,66.722107%);stop-opacity:1;" offset="0.789062"/><stop style="stop-color:rgb(8.857727%,70.654297%,66.925049%);stop-opacity:1;" offset="0.792969"/><stop style="stop-color:rgb(8.607483%,70.565796%,67.129517%);stop-opacity:1;" offset="0.796875"/><stop style="stop-color:rgb(8.355713%,70.475769%,67.332458%);stop-opacity:1;" offset="0.800781"/><stop style="stop-color:rgb(8.105469%,70.387268%,67.5354%);stop-opacity:1;" offset="0.804688"/><stop style="stop-color:rgb(7.853699%,70.297241%,67.738342%);stop-opacity:1;" offset="0.808594"/><stop style="stop-color:rgb(7.603455%,70.20874%,67.941284%);stop-opacity:1;" offset="0.8125"/><stop style="stop-color:rgb(7.351685%,70.118713%,68.144226%);stop-opacity:1;" offset="0.816406"/><stop style="stop-color:rgb(7.10144%,70.030212%,68.348694%);stop-opacity:1;" offset="0.820312"/><stop style="stop-color:rgb(6.84967%,69.940186%,68.551636%);stop-opacity:1;" offset="0.824219"/><stop style="stop-color:rgb(6.599426%,69.850159%,68.754578%);stop-opacity:1;" offset="0.828125"/><stop style="stop-color:rgb(6.347656%,69.760132%,68.95752%);stop-opacity:1;" offset="0.832031"/><stop style="stop-color:rgb(6.097412%,69.671631%,69.161987%);stop-opacity:1;" offset="0.835938"/><stop style="stop-color:rgb(5.845642%,69.581604%,69.364929%);stop-opacity:1;" offset="0.839844"/><stop style="stop-color:rgb(5.595398%,69.493103%,69.567871%);stop-opacity:1;" offset="0.84375"/><stop style="stop-color:rgb(5.343628%,69.403076%,69.770813%);stop-opacity:1;" offset="0.847656"/><stop style="stop-color:rgb(5.093384%,69.314575%,69.973755%);stop-opacity:1;" offset="0.851562"/><stop style="stop-color:rgb(4.841614%,69.224548%,70.176697%);stop-opacity:1;" offset="0.855469"/><stop style="stop-color:rgb(4.59137%,69.136047%,70.381165%);stop-opacity:1;" offset="0.859375"/><stop style="stop-color:rgb(4.3396%,69.046021%,70.584106%);stop-opacity:1;" offset="0.863281"/><stop style="stop-color:rgb(4.089355%,68.955994%,70.787048%);stop-opacity:1;" offset="0.867188"/><stop style="stop-color:rgb(3.837585%,68.865967%,70.98999%);stop-opacity:1;" offset="0.871094"/><stop style="stop-color:rgb(3.587341%,68.777466%,71.192932%);stop-opacity:1;" offset="0.875"/><stop style="stop-color:rgb(3.335571%,68.687439%,71.395874%);stop-opacity:1;" offset="0.878906"/><stop style="stop-color:rgb(3.085327%,68.598938%,71.600342%);stop-opacity:1;" offset="0.882812"/><stop style="stop-color:rgb(2.833557%,68.508911%,71.803284%);stop-opacity:1;" offset="0.886719"/><stop style="stop-color:rgb(2.583313%,68.42041%,72.006226%);stop-opacity:1;" offset="0.890625"/><stop style="stop-color:rgb(2.333069%,68.330383%,72.209167%);stop-opacity:1;" offset="0.894531"/><stop style="stop-color:rgb(2.082825%,68.241882%,72.412109%);stop-opacity:1;" offset="0.898438"/><stop style="stop-color:rgb(1.831055%,68.151855%,72.615051%);stop-opacity:1;" offset="0.902344"/><stop style="stop-color:rgb(1.580811%,68.061829%,72.819519%);stop-opacity:1;" offset="0.90625"/><stop style="stop-color:rgb(1.329041%,67.971802%,73.022461%);stop-opacity:1;" offset="0.910156"/><stop style="stop-color:rgb(1.078796%,67.883301%,73.225403%);stop-opacity:1;" offset="0.914063"/><stop style="stop-color:rgb(0.827026%,67.793274%,73.428345%);stop-opacity:1;" offset="0.917969"/><stop style="stop-color:rgb(0.576782%,67.704773%,73.631287%);stop-opacity:1;" offset="0.921875"/><stop style="stop-color:rgb(0.325012%,67.614746%,73.834229%);stop-opacity:1;" offset="0.925781"/><stop style="stop-color:rgb(0.0747681%,67.526245%,74.038696%);stop-opacity:1;" offset="0.929688"/><stop style="stop-color:rgb(0.0366211%,67.512512%,74.069214%);stop-opacity:1;" offset="0.9375"/><stop style="stop-color:rgb(0%,67.498779%,74.099731%);stop-opacity:1;" offset="1"/></linearGradient><clipPath xml:id="clip3" id="clip3"><path d="M 35 5.199219 L 37 5.199219 L 37 7 L 35 7 Z M 35 5.199219 "/></clipPath><clipPath xml:id="clip4" id="clip4"><path d="M 39 9 L 40.667969 9 L 40.667969 11 L 39 11 Z M 39 9 "/></clipPath><clipPath xml:id="clip5" id="clip5"><path d="M 39 11 L 40.667969 11 L 40.667969 13 L 39 13 Z M 39 11 "/></clipPath><clipPath xml:id="clip6" id="clip6"><path d="M 36 29 L 38 29 L 38 30.460938 L 36 30.460938 Z M 36 29 "/></clipPath><clipPath xml:id="clip7" id="clip7"><path d="M 30 5.199219 L 36 5.199219 L 36 13 L 30 13 Z M 30 5.199219 "/></clipPath><clipPath xml:id="clip8" id="clip8"><path d="M 21 5.199219 L 23 5.199219 L 23 7 L 21 7 Z M 21 5.199219 "/></clipPath><clipPath xml:id="clip9" id="clip9"><path d="M 17.636719 9 L 19 9 L 19 11 L 17.636719 11 Z M 17.636719 9 "/></clipPath><clipPath xml:id="clip10" id="clip10"><path d="M 17.636719 11 L 19 11 L 19 13 L 17.636719 13 Z M 17.636719 11 "/></clipPath><clipPath xml:id="clip11" id="clip11"><path d="M 20 29 L 22 29 L 22 30.460938 L 20 30.460938 Z M 20 29 "/></clipPath><clipPath xml:id="clip12" id="clip12"><path d="M 22 5.199219 L 28 5.199219 L 28 13 L 22 13 Z M 22 5.199219 "/></clipPath></defs><g xml:id="surface1" id="surface1"><g clip-rule="nonzero" clip-path="url(#clip1)"><g clip-rule="nonzero" clip-path="url(#clip2)"><path style=" stroke:none;fill-rule:nonzero;fill:url(#linear0);" d="M 15.90625 26.40625 L 15.90625 51.988281 L 42.277344 51.988281 L 42.277344 26.40625 Z M 15.90625 26.40625 "/></g></g><path style=" stroke:none;fill-rule:nonzero;fill:rgb(100%,100%,100%);fill-opacity:1;" d="M 50.074219 13.613281 C 50.074219 13.613281 49.890625 7.988281 43.910156 8.53125 C 43.910156 8.53125 42.640625 1.457031 35.570312 4.175781 C 35.570312 4.175781 34.394531 0.00390625 29.089844 0.910156 C 23.789062 0.00390625 22.609375 4.175781 22.609375 4.175781 C 15.542969 1.457031 14.273438 8.53125 14.273438 8.53125 C 8.289062 7.988281 8.109375 13.613281 8.109375 13.613281 C 0.859375 16.699219 4.484375 23.957031 4.484375 23.957031 C 4.304688 31.394531 11.191406 29.585938 11.191406 29.585938 C 14.816406 35.941406 20.4375 30.488281 20.4375 30.488281 C 26.417969 34.117188 29.089844 27.585938 29.089844 27.585938 C 29.089844 27.585938 31.765625 34.117188 37.746094 30.488281 C 37.746094 30.488281 43.367188 35.941406 46.992188 29.585938 C 46.992188 29.585938 53.878906 31.394531 53.699219 23.957031 C 53.699219 23.957031 57.324219 16.699219 50.074219 13.613281 Z M 50.074219 13.613281 "/><path style=" stroke:none;fill-rule:nonzero;fill:rgb(1.959229%,2.349854%,2.749634%);fill-opacity:1;" d="M 42.554688 33.230469 C 40.355469 33.230469 38.421875 31.808594 37.675781 31.179688 C 36.515625 31.824219 35.382812 32.148438 34.308594 32.148438 C 31.558594 32.148438 29.875 30.085938 29.089844 28.800781 C 28.308594 30.085938 26.625 32.148438 23.875 32.148438 C 22.800781 32.148438 21.667969 31.824219 20.503906 31.179688 C 19.761719 31.808594 17.828125 33.230469 15.625 33.230469 C 13.742188 33.230469 12.15625 32.214844 10.914062 30.21875 C 10.578125 30.277344 10.0625 30.34375 9.46875 30.34375 C 7.792969 30.34375 6.40625 29.828125 5.453125 28.851562 C 4.40625 27.777344 3.890625 26.171875 3.917969 24.078125 C 3.613281 23.40625 2.359375 20.347656 3.449219 17.382812 C 4.113281 15.582031 5.5 14.1875 7.582031 13.230469 C 7.746094 11.976562 8.652344 7.929688 13.480469 7.929688 C 13.597656 7.929688 13.71875 7.933594 13.839844 7.9375 C 14.226562 6.597656 15.636719 2.988281 19.625 2.988281 C 20.453125 2.988281 21.347656 3.148438 22.292969 3.464844 C 22.800781 2.40625 24.253906 0.21875 27.648438 0.21875 C 28.109375 0.21875 28.59375 0.257812 29.089844 0.339844 C 29.589844 0.257812 30.074219 0.21875 30.535156 0.21875 C 33.925781 0.21875 35.382812 2.40625 35.886719 3.464844 C 36.835938 3.148438 37.730469 2.988281 38.558594 2.988281 C 42.546875 2.988281 43.953125 6.597656 44.339844 7.9375 C 44.464844 7.933594 44.582031 7.929688 44.699219 7.929688 C 49.53125 7.929688 50.4375 11.976562 50.601562 13.230469 C 52.679688 14.1875 54.070312 15.582031 54.734375 17.382812 C 55.820312 20.34375 54.570312 23.40625 54.265625 24.078125 C 54.292969 26.171875 53.777344 27.777344 52.726562 28.851562 C 51.777344 29.828125 50.390625 30.34375 48.714844 30.34375 C 48.117188 30.34375 47.605469 30.277344 47.269531 30.21875 C 46.027344 32.214844 44.441406 33.230469 42.554688 33.230469 Z M 37.746094 29.921875 C 37.890625 29.921875 38.03125 29.976562 38.140625 30.082031 C 38.160156 30.101562 40.253906 32.101562 42.554688 32.101562 C 44.117188 32.101562 45.445312 31.160156 46.5 29.304688 C 46.628906 29.085938 46.886719 28.972656 47.132812 29.039062 C 47.140625 29.039062 47.820312 29.214844 48.714844 29.214844 C 49.667969 29.214844 50.992188 29.015625 51.921875 28.0625 C 52.769531 27.191406 53.179688 25.8125 53.132812 23.96875 C 53.132812 23.878906 53.152344 23.785156 53.195312 23.703125 C 53.207031 23.671875 54.710938 20.585938 53.671875 17.765625 C 53.089844 16.183594 51.804688 14.960938 49.851562 14.132812 C 49.648438 14.046875 49.515625 13.851562 49.507812 13.632812 C 49.503906 13.445312 49.285156 9.058594 44.703125 9.058594 C 44.464844 9.058594 44.214844 9.070312 43.960938 9.09375 C 43.667969 9.121094 43.40625 8.921875 43.355469 8.632812 C 43.320312 8.449219 42.484375 4.121094 38.558594 4.121094 C 37.71875 4.121094 36.78125 4.316406 35.773438 4.703125 C 35.625 4.761719 35.460938 4.753906 35.320312 4.683594 C 35.175781 4.613281 35.070312 4.484375 35.027344 4.332031 C 34.992188 4.210938 34.117188 1.347656 30.535156 1.347656 C 30.109375 1.347656 29.65625 1.386719 29.1875 1.46875 C 29.125 1.480469 29.058594 1.480469 28.996094 1.46875 C 28.527344 1.386719 28.074219 1.347656 27.648438 1.347656 C 24.066406 1.347656 23.1875 4.210938 23.152344 4.332031 C 23.109375 4.484375 23.003906 4.613281 22.863281 4.683594 C 22.71875 4.753906 22.554688 4.761719 22.410156 4.703125 C 21.398438 4.316406 20.460938 4.121094 19.625 4.121094 C 15.699219 4.121094 14.859375 8.449219 14.828125 8.632812 C 14.773438 8.921875 14.511719 9.121094 14.222656 9.09375 C 13.96875 9.070312 13.71875 9.058594 13.480469 9.058594 C 8.894531 9.058594 8.679688 13.445312 8.671875 13.632812 C 8.664062 13.851562 8.53125 14.046875 8.328125 14.132812 C 6.378906 14.960938 5.09375 16.183594 4.511719 17.765625 C 3.46875 20.585938 4.972656 23.671875 4.988281 23.703125 C 5.027344 23.785156 5.050781 23.878906 5.046875 23.96875 C 5.003906 25.8125 5.410156 27.191406 6.261719 28.0625 C 7.1875 29.015625 8.515625 29.214844 9.464844 29.214844 C 10.359375 29.214844 11.042969 29.039062 11.046875 29.039062 C 11.296875 28.976562 11.554688 29.085938 11.679688 29.304688 C 12.738281 31.160156 14.066406 32.101562 15.625 32.101562 C 17.925781 32.101562 20.023438 30.101562 20.042969 30.082031 C 20.226562 29.902344 20.507812 29.871094 20.726562 30.003906 C 21.839844 30.679688 22.898438 31.019531 23.875 31.019531 C 27.023438 31.019531 28.554688 27.40625 28.570312 27.371094 C 28.65625 27.160156 28.863281 27.019531 29.089844 27.019531 C 29.320312 27.019531 29.527344 27.160156 29.613281 27.371094 C 29.628906 27.40625 31.15625 31.019531 34.308594 31.019531 C 35.285156 31.019531 36.34375 30.679688 37.453125 30.003906 C 37.546875 29.949219 37.644531 29.921875 37.746094 29.921875 Z M 37.746094 29.921875 "/><path style=" stroke:none;fill-rule:nonzero;fill:rgb(1.959229%,2.349854%,2.749634%);fill-opacity:1;" d="M 25.011719 49.015625 C 25.003906 49.015625 24.996094 49.015625 24.984375 49.015625 C 24.675781 49 24.433594 48.734375 24.449219 48.425781 C 24.710938 42.902344 20.460938 32.988281 20.417969 32.886719 C 20.292969 32.601562 20.425781 32.269531 20.710938 32.144531 C 20.996094 32.023438 21.328125 32.152344 21.453125 32.441406 C 21.632812 32.855469 25.851562 42.699219 25.574219 48.476562 C 25.5625 48.78125 25.3125 49.015625 25.011719 49.015625 Z M 25.011719 49.015625 "/><path style=" stroke:none;fill-rule:nonzero;fill:rgb(1.959229%,2.349854%,2.749634%);fill-opacity:1;" d="M 29.09375 43.164062 C 29.070312 43.164062 29.046875 43.164062 29.023438 43.160156 C 28.710938 43.121094 28.492188 42.839844 28.53125 42.53125 C 28.796875 40.417969 28.53125 31.140625 28.527344 31.046875 C 28.519531 30.738281 28.765625 30.476562 29.074219 30.46875 C 29.382812 30.460938 29.644531 30.703125 29.65625 31.015625 C 29.667969 31.402344 29.925781 40.476562 29.652344 42.667969 C 29.617188 42.957031 29.371094 43.164062 29.09375 43.164062 Z M 29.09375 43.164062 "/><path style=" stroke:none;fill-rule:nonzero;fill:rgb(1.959229%,2.349854%,2.749634%);fill-opacity:1;" d="M 33.578125 46.292969 C 33.558594 46.292969 33.535156 46.292969 33.515625 46.289062 C 33.207031 46.257812 32.984375 45.976562 33.015625 45.667969 C 33.292969 43.191406 36.3125 33.710938 36.4375 33.308594 C 36.535156 33.011719 36.851562 32.851562 37.148438 32.945312 C 37.445312 33.039062 37.609375 33.355469 37.515625 33.652344 C 37.484375 33.75 34.402344 43.425781 34.136719 45.792969 C 34.105469 46.082031 33.863281 46.292969 33.578125 46.292969 Z M 33.578125 46.292969 "/><path style="fill:none;stroke-width:28;stroke-linecap:round;stroke-linejoin:round;stroke:rgb(9.408569%,9.408569%,12.939453%);stroke-opacity:1;stroke-miterlimit:10;" d="M 1916.651205 1864.497187 L 2333.178889 1864.497187 L 2333.178889 2281.292018 L 1916.651205 2281.292018 Z M 1916.651205 1864.497187 " transform="matrix(0.00954693,0,0,-0.00959705,8.850294,38.233513)"/><path style="fill:none;stroke-width:28;stroke-linecap:round;stroke-linejoin:round;stroke:rgb(9.408569%,9.408569%,12.939453%);stroke-opacity:1;stroke-miterlimit:10;" d="M 2460.837668 2087.140519 L 2460.837668 2462.418678 L 2744.387456 2745.708915 L 3195.284811 2745.708915 " transform="matrix(0.00954693,0,0,-0.00959705,8.850294,38.233513)"/><path style="fill:none;stroke-width:28;stroke-linecap:round;stroke-linejoin:round;stroke:rgb(9.408569%,9.408569%,12.939453%);stroke-opacity:1;stroke-miterlimit:10;" d="M 2333.178889 2087.140519 L 2828.265821 2087.140519 L 2828.265821 2494.166722 L 3059.442776 2494.166722 " transform="matrix(0.00954693,0,0,-0.00959705,8.850294,38.233513)"/><path style="fill:none;stroke-width:28;stroke-linecap:round;stroke-linejoin:round;stroke:rgb(9.408569%,9.408569%,12.939453%);stroke-opacity:1;stroke-miterlimit:10;" d="M 2397.008278 2087.140519 L 2828.265821 1642.26088 L 3003.796642 1642.26088 " transform="matrix(0.00954693,0,0,-0.00959705,8.850294,38.233513)"/><path style="fill:none;stroke-width:28;stroke-linecap:round;stroke-linejoin:round;stroke:rgb(9.408569%,9.408569%,12.939453%);stroke-opacity:1;stroke-miterlimit:10;" d="M 2625.321095 1851.472348 L 2625.321095 1320.710181 L 2963.698692 1320.710181 " transform="matrix(0.00954693,0,0,-0.00959705,8.850294,38.233513)"/><path style="fill:none;stroke-width:28;stroke-linecap:round;stroke-linejoin:round;stroke:rgb(9.408569%,9.408569%,12.939453%);stroke-opacity:1;stroke-miterlimit:10;" d="M 2334.81554 1864.497187 L 2334.81554 1280.821613 L 2586.859796 1029.27942 " transform="matrix(0.00954693,0,0,-0.00959705,8.850294,38.233513)"/><path style="fill:none;stroke-width:28;stroke-linecap:round;stroke-linejoin:round;stroke:rgb(9.408569%,9.408569%,12.939453%);stroke-opacity:1;stroke-miterlimit:10;" d="M 2333.178889 2281.292018 L 2333.178889 2988.296531 " transform="matrix(0.00954693,0,0,-0.00959705,8.850294,38.233513)"/><path style="fill:none;stroke-width:28;stroke-linecap:round;stroke-linejoin:round;stroke:rgb(9.408569%,9.408569%,12.939453%);stroke-opacity:1;stroke-miterlimit:10;" d="M 2756.253176 1320.710181 L 2756.253176 1081.378774 L 2931.783997 905.950481 " transform="matrix(0.00954693,0,0,-0.00959705,8.850294,38.233513)"/><path style="fill:none;stroke-width:28;stroke-linecap:round;stroke-linejoin:round;stroke:rgb(9.408569%,9.408569%,12.939453%);stroke-opacity:1;stroke-miterlimit:10;" d="M 2794.305312 2745.708915 L 3006.251618 2957.36254 L 3195.284811 2957.36254 " transform="matrix(0.00954693,0,0,-0.00959705,8.850294,38.233513)"/><path style="fill:none;stroke-width:28;stroke-linecap:round;stroke-linejoin:round;stroke:rgb(9.408569%,9.408569%,12.939453%);stroke-opacity:1;stroke-miterlimit:10;" d="M 2378.595954 3033.47644 C 2378.595954 3008.647841 2358.137817 2988.296531 2333.178889 2988.296531 C 2308.219961 2988.296531 2288.170986 3008.647841 2288.170986 3033.47644 C 2288.170986 3058.712064 2308.219961 3079.063374 2333.178889 3079.063374 C 2358.137817 3079.063374 2378.595954 3058.712064 2378.595954 3033.47644 Z M 2378.595954 3033.47644 " transform="matrix(0.00954693,0,0,-0.00959705,8.850294,38.233513)"/><g clip-rule="nonzero" clip-path="url(#clip3)"><path style="fill:none;stroke-width:28;stroke-linecap:round;stroke-linejoin:round;stroke:rgb(9.408569%,9.408569%,12.939453%);stroke-opacity:1;stroke-miterlimit:10;" d="M 2889.231071 3382.704921 C 2889.231071 3357.876323 2869.182096 3337.525013 2844.223168 3337.525013 C 2818.855077 3337.525013 2798.806102 3357.876323 2798.806102 3382.704921 C 2798.806102 3407.940546 2818.855077 3427.884829 2844.223168 3427.884829 C 2869.182096 3427.884829 2889.231071 3407.940546 2889.231071 3382.704921 Z M 2889.231071 3382.704921 " transform="matrix(0.00954693,0,0,-0.00959705,8.850294,38.233513)"/></g><g clip-rule="nonzero" clip-path="url(#clip4)"><path style="fill:none;stroke-width:28;stroke-linecap:round;stroke-linejoin:round;stroke:rgb(9.408569%,9.408569%,12.939453%);stroke-opacity:1;stroke-miterlimit:10;" d="M 3316.396986 2956.955514 C 3316.396986 2932.126915 3295.938848 2911.775605 3270.97992 2911.775605 C 3246.020992 2911.775605 3225.972017 2932.126915 3225.972017 2956.955514 C 3225.972017 2982.191138 3246.020992 3002.542448 3270.97992 3002.542448 C 3295.938848 3002.542448 3316.396986 2982.191138 3316.396986 2956.955514 Z M 3316.396986 2956.955514 " transform="matrix(0.00954693,0,0,-0.00959705,8.850294,38.233513)"/></g><g clip-rule="nonzero" clip-path="url(#clip5)"><path style="fill:none;stroke-width:28;stroke-linecap:round;stroke-linejoin:round;stroke:rgb(9.408569%,9.408569%,12.939453%);stroke-opacity:1;stroke-miterlimit:10;" d="M 3316.396986 2745.708915 C 3316.396986 2720.47329 3295.938848 2700.529006 3270.97992 2700.529006 C 3246.020992 2700.529006 3225.972017 2720.47329 3225.972017 2745.708915 C 3225.972017 2770.537513 3246.020992 2790.888823 3270.97992 2790.888823 C 3295.938848 2790.888823 3316.396986 2770.537513 3316.396986 2745.708915 Z M 3316.396986 2745.708915 " transform="matrix(0.00954693,0,0,-0.00959705,8.850294,38.233513)"/></g><path style="fill:none;stroke-width:28;stroke-linecap:round;stroke-linejoin:round;stroke:rgb(9.408569%,9.408569%,12.939453%);stroke-opacity:1;stroke-miterlimit:10;" d="M 3180.554952 2494.166722 C 3180.554952 2469.338123 3160.505977 2448.986813 3135.547049 2448.986813 C 3110.588121 2448.986813 3090.129983 2469.338123 3090.129983 2494.166722 C 3090.129983 2518.99532 3110.588121 2539.34663 3135.547049 2539.34663 C 3160.505977 2539.34663 3180.554952 2518.99532 3180.554952 2494.166722 Z M 3180.554952 2494.166722 " transform="matrix(0.00954693,0,0,-0.00959705,8.850294,38.233513)"/><path style="fill:none;stroke-width:28;stroke-linecap:round;stroke-linejoin:round;stroke:rgb(9.408569%,9.408569%,12.939453%);stroke-opacity:1;stroke-miterlimit:10;" d="M 3072.535985 1320.710181 C 3072.535985 1295.881582 3052.48701 1275.530272 3027.528082 1275.530272 C 3002.569154 1275.530272 2982.111016 1295.881582 2982.111016 1320.710181 C 2982.111016 1345.945805 3002.569154 1366.297115 3027.528082 1366.297115 C 3052.48701 1366.297115 3072.535985 1345.945805 3072.535985 1320.710181 Z M 3072.535985 1320.710181 " transform="matrix(0.00954693,0,0,-0.00959705,8.850294,38.233513)"/><path style="fill:none;stroke-width:28;stroke-linecap:round;stroke-linejoin:round;stroke:rgb(9.408569%,9.408569%,12.939453%);stroke-opacity:1;stroke-miterlimit:10;" d="M 3094.22161 1642.26088 C 3094.22161 1617.025256 3073.763473 1597.080972 3048.804545 1597.080972 C 3023.845617 1597.080972 3003.796642 1617.025256 3003.796642 1642.26088 C 3003.796642 1667.089479 3023.845617 1687.440789 3048.804545 1687.440789 C 3073.763473 1687.440789 3094.22161 1667.089479 3094.22161 1642.26088 Z M 3094.22161 1642.26088 " transform="matrix(0.00954693,0,0,-0.00959705,8.850294,38.233513)"/><g clip-rule="nonzero" clip-path="url(#clip6)"><path style="fill:none;stroke-width:28;stroke-linecap:round;stroke-linejoin:round;stroke:rgb(9.408569%,9.408569%,12.939453%);stroke-opacity:1;stroke-miterlimit:10;" d="M 3015.662362 869.318123 C 3015.662362 844.082498 2995.613387 823.731188 2970.245296 823.731188 C 2945.286368 823.731188 2925.237393 844.082498 2925.237393 869.318123 C 2925.237393 894.146721 2945.286368 914.498031 2970.245296 914.498031 C 2995.613387 914.498031 3015.662362 894.146721 3015.662362 869.318123 Z M 3015.662362 869.318123 " transform="matrix(0.00954693,0,0,-0.00959705,8.850294,38.233513)"/></g><path style="fill:none;stroke-width:28;stroke-linecap:round;stroke-linejoin:round;stroke:rgb(9.408569%,9.408569%,12.939453%);stroke-opacity:1;stroke-miterlimit:10;" d="M 2659.690766 983.692485 C 2659.690766 958.863887 2639.641791 938.512577 2614.682863 938.512577 C 2589.723935 938.512577 2569.265797 958.863887 2569.265797 983.692485 C 2569.265797 1008.92811 2589.723935 1029.27942 2614.682863 1029.27942 C 2639.641791 1029.27942 2659.690766 1008.92811 2659.690766 983.692485 Z M 2659.690766 983.692485 " transform="matrix(0.00954693,0,0,-0.00959705,8.850294,38.233513)"/><g clip-rule="nonzero" clip-path="url(#clip7)"><path style="fill:none;stroke-width:28;stroke-linecap:round;stroke-linejoin:round;stroke:rgb(9.408569%,9.408569%,12.939453%);stroke-opacity:1;stroke-miterlimit:10;" d="M 2333.178889 2659.012334 L 2648.234209 2974.050614 L 2648.234209 3186.111265 L 2809.853497 3347.700668 " transform="matrix(0.00954693,0,0,-0.00959705,8.850294,38.233513)"/></g><path style="fill:none;stroke-width:28;stroke-linecap:round;stroke-linejoin:round;stroke:rgb(9.408569%,9.408569%,12.939453%);stroke-opacity:1;stroke-miterlimit:10;" d="M 1791.03824 2087.140519 L 1791.03824 2462.418678 L 1507.897614 2745.708915 L 1056.591097 2745.708915 " transform="matrix(0.00954693,0,0,-0.00959705,8.850294,38.233513)"/><path style="fill:none;stroke-width:28;stroke-linecap:round;stroke-linejoin:round;stroke:rgb(9.408569%,9.408569%,12.939453%);stroke-opacity:1;stroke-miterlimit:10;" d="M 1918.697019 2087.140519 L 1424.01925 2087.140519 L 1424.01925 2494.166722 L 1192.433131 2494.166722 " transform="matrix(0.00954693,0,0,-0.00959705,8.850294,38.233513)"/><path style="fill:none;stroke-width:28;stroke-linecap:round;stroke-linejoin:round;stroke:rgb(9.408569%,9.408569%,12.939453%);stroke-opacity:1;stroke-miterlimit:10;" d="M 1854.867629 2087.140519 L 1424.01925 1642.26088 L 1248.488428 1642.26088 " transform="matrix(0.00954693,0,0,-0.00959705,8.850294,38.233513)"/><path style="fill:none;stroke-width:28;stroke-linecap:round;stroke-linejoin:round;stroke:rgb(9.408569%,9.408569%,12.939453%);stroke-opacity:1;stroke-miterlimit:10;" d="M 1626.963976 1851.472348 L 1626.963976 1320.710181 L 1288.177215 1320.710181 " transform="matrix(0.00954693,0,0,-0.00959705,8.850294,38.233513)"/><path style="fill:none;stroke-width:28;stroke-linecap:round;stroke-linejoin:round;stroke:rgb(9.408569%,9.408569%,12.939453%);stroke-opacity:1;stroke-miterlimit:10;" d="M 1917.060368 1864.497187 L 1917.060368 1280.821613 L 1665.016112 1029.27942 " transform="matrix(0.00954693,0,0,-0.00959705,8.850294,38.233513)"/><path style="fill:none;stroke-width:28;stroke-linecap:round;stroke-linejoin:round;stroke:rgb(9.408569%,9.408569%,12.939453%);stroke-opacity:1;stroke-miterlimit:10;" d="M 1918.697019 2281.292018 L 1918.697019 2988.296531 " transform="matrix(0.00954693,0,0,-0.00959705,8.850294,38.233513)"/><path style="fill:none;stroke-width:28;stroke-linecap:round;stroke-linejoin:round;stroke:rgb(9.408569%,9.408569%,12.939453%);stroke-opacity:1;stroke-miterlimit:10;" d="M 1495.622732 1320.710181 L 1495.622732 1081.378774 L 1320.09191 905.950481 " transform="matrix(0.00954693,0,0,-0.00959705,8.850294,38.233513)"/><path style="fill:none;stroke-width:28;stroke-linecap:round;stroke-linejoin:round;stroke:rgb(9.408569%,9.408569%,12.939453%);stroke-opacity:1;stroke-miterlimit:10;" d="M 1457.570596 2745.708915 L 1245.624289 2957.36254 L 1056.591097 2957.36254 " transform="matrix(0.00954693,0,0,-0.00959705,8.850294,38.233513)"/><path style="fill:none;stroke-width:28;stroke-linecap:round;stroke-linejoin:round;stroke:rgb(9.408569%,9.408569%,12.939453%);stroke-opacity:1;stroke-miterlimit:10;" d="M 1873.689116 3033.47644 C 1873.689116 3008.647841 1893.738091 2988.296531 1918.697019 2988.296531 C 1943.655947 2988.296531 1964.114085 3008.647841 1964.114085 3033.47644 C 1964.114085 3058.712064 1943.655947 3079.063374 1918.697019 3079.063374 C 1893.738091 3079.063374 1873.689116 3058.712064 1873.689116 3033.47644 Z M 1873.689116 3033.47644 " transform="matrix(0.00954693,0,0,-0.00959705,8.850294,38.233513)"/><g clip-rule="nonzero" clip-path="url(#clip8)"><path style="fill:none;stroke-width:28;stroke-linecap:round;stroke-linejoin:round;stroke:rgb(9.408569%,9.408569%,12.939453%);stroke-opacity:1;stroke-miterlimit:10;" d="M 1362.644837 3382.704921 C 1362.644837 3357.876323 1383.102974 3337.525013 1408.061902 3337.525013 C 1433.02083 3337.525013 1453.069805 3357.876323 1453.069805 3382.704921 C 1453.069805 3407.940546 1433.02083 3427.884829 1408.061902 3427.884829 C 1383.102974 3427.884829 1362.644837 3407.940546 1362.644837 3382.704921 Z M 1362.644837 3382.704921 " transform="matrix(0.00954693,0,0,-0.00959705,8.850294,38.233513)"/></g><g clip-rule="nonzero" clip-path="url(#clip9)"><path style="fill:none;stroke-width:28;stroke-linecap:round;stroke-linejoin:round;stroke:rgb(9.408569%,9.408569%,12.939453%);stroke-opacity:1;stroke-miterlimit:10;" d="M 935.888084 2956.955514 C 935.888084 2932.126915 955.937059 2911.775605 980.895987 2911.775605 C 1005.854915 2911.775605 1026.313053 2932.126915 1026.313053 2956.955514 C 1026.313053 2982.191138 1005.854915 3002.542448 980.895987 3002.542448 C 955.937059 3002.542448 935.888084 2982.191138 935.888084 2956.955514 Z M 935.888084 2956.955514 " transform="matrix(0.00954693,0,0,-0.00959705,8.850294,38.233513)"/></g><g clip-rule="nonzero" clip-path="url(#clip10)"><path style="fill:none;stroke-width:28;stroke-linecap:round;stroke-linejoin:round;stroke:rgb(9.408569%,9.408569%,12.939453%);stroke-opacity:1;stroke-miterlimit:10;" d="M 935.888084 2745.708915 C 935.888084 2720.47329 955.937059 2700.529006 980.895987 2700.529006 C 1005.854915 2700.529006 1026.313053 2720.47329 1026.313053 2745.708915 C 1026.313053 2770.537513 1005.854915 2790.888823 980.895987 2790.888823 C 955.937059 2790.888823 935.888084 2770.537513 935.888084 2745.708915 Z M 935.888084 2745.708915 " transform="matrix(0.00954693,0,0,-0.00959705,8.850294,38.233513)"/></g><path style="fill:none;stroke-width:28;stroke-linecap:round;stroke-linejoin:round;stroke:rgb(9.408569%,9.408569%,12.939453%);stroke-opacity:1;stroke-miterlimit:10;" d="M 1071.320956 2494.166722 C 1071.320956 2469.338123 1091.779094 2448.986813 1116.738022 2448.986813 C 1141.69695 2448.986813 1161.745925 2469.338123 1161.745925 2494.166722 C 1161.745925 2518.99532 1141.69695 2539.34663 1116.738022 2539.34663 C 1091.779094 2539.34663 1071.320956 2518.99532 1071.320956 2494.166722 Z M 1071.320956 2494.166722 " transform="matrix(0.00954693,0,0,-0.00959705,8.850294,38.233513)"/><path style="fill:none;stroke-width:28;stroke-linecap:round;stroke-linejoin:round;stroke:rgb(9.408569%,9.408569%,12.939453%);stroke-opacity:1;stroke-miterlimit:10;" d="M 1179.339923 1320.710181 C 1179.339923 1295.881582 1199.388898 1275.530272 1224.756989 1275.530272 C 1249.715917 1275.530272 1269.764892 1295.881582 1269.764892 1320.710181 C 1269.764892 1345.945805 1249.715917 1366.297115 1224.756989 1366.297115 C 1199.388898 1366.297115 1179.339923 1345.945805 1179.339923 1320.710181 Z M 1179.339923 1320.710181 " transform="matrix(0.00954693,0,0,-0.00959705,8.850294,38.233513)"/><path style="fill:none;stroke-width:28;stroke-linecap:round;stroke-linejoin:round;stroke:rgb(9.408569%,9.408569%,12.939453%);stroke-opacity:1;stroke-miterlimit:10;" d="M 1157.654297 1642.26088 C 1157.654297 1617.025256 1178.112435 1597.080972 1203.071363 1597.080972 C 1228.030291 1597.080972 1248.488428 1617.025256 1248.488428 1642.26088 C 1248.488428 1667.089479 1228.030291 1687.440789 1203.071363 1687.440789 C 1178.112435 1687.440789 1157.654297 1667.089479 1157.654297 1642.26088 Z M 1157.654297 1642.26088 " transform="matrix(0.00954693,0,0,-0.00959705,8.850294,38.233513)"/><g clip-rule="nonzero" clip-path="url(#clip11)"><path style="fill:none;stroke-width:28;stroke-linecap:round;stroke-linejoin:round;stroke:rgb(9.408569%,9.408569%,12.939453%);stroke-opacity:1;stroke-miterlimit:10;" d="M 1236.213546 869.318123 C 1236.213546 844.082498 1256.671683 823.731188 1281.630611 823.731188 C 1306.589539 823.731188 1326.638514 844.082498 1326.638514 869.318123 C 1326.638514 894.146721 1306.589539 914.498031 1281.630611 914.498031 C 1256.671683 914.498031 1236.213546 894.146721 1236.213546 869.318123 Z M 1236.213546 869.318123 " transform="matrix(0.00954693,0,0,-0.00959705,8.850294,38.233513)"/></g><path style="fill:none;stroke-width:28;stroke-linecap:round;stroke-linejoin:round;stroke:rgb(9.408569%,9.408569%,12.939453%);stroke-opacity:1;stroke-miterlimit:10;" d="M 1592.185141 983.692485 C 1592.185141 958.863887 1612.234116 938.512577 1637.602207 938.512577 C 1662.561135 938.512577 1682.61011 958.863887 1682.61011 983.692485 C 1682.61011 1008.92811 1662.561135 1029.27942 1637.602207 1029.27942 C 1612.234116 1029.27942 1592.185141 1008.92811 1592.185141 983.692485 Z M 1592.185141 983.692485 " transform="matrix(0.00954693,0,0,-0.00959705,8.850294,38.233513)"/><g clip-rule="nonzero" clip-path="url(#clip12)"><path style="fill:none;stroke-width:28;stroke-linecap:round;stroke-linejoin:round;stroke:rgb(9.408569%,9.408569%,12.939453%);stroke-opacity:1;stroke-miterlimit:10;" d="M 1918.697019 2659.012334 L 1603.641699 2974.050614 L 1603.641699 3186.111265 L 1442.022411 3347.700668 " transform="matrix(0.00954693,0,0,-0.00959705,8.850294,38.233513)"/></g><path style=" stroke:none;fill-rule:nonzero;fill:rgb(49.409485%,85.099792%,34.118652%);fill-opacity:1;" d="M 34.625 23.335938 L 23.671875 23.335938 L 23.671875 12.324219 L 34.625 12.324219 L 34.625 23.335938 "/><path style="fill:none;stroke-width:28;stroke-linecap:round;stroke-linejoin:round;stroke:rgb(9.408569%,9.408569%,12.939453%);stroke-opacity:1;stroke-miterlimit:10;" d="M 2699.788716 1552.30809 L 1552.496354 1552.30809 L 1552.496354 2699.714954 L 2699.788716 2699.714954 Z M 2699.788716 1552.30809 " transform="matrix(0.00954693,0,0,-0.00959705,8.850294,38.233513)"/><path style=" stroke:none;fill-rule:nonzero;fill:rgb(49.409485%,85.099792%,34.118652%);fill-opacity:1;" d="M 33.769531 20.640625 C 33.769531 21.652344 32.949219 22.476562 31.941406 22.476562 L 26.351562 22.476562 C 25.347656 22.476562 24.523438 21.652344 24.523438 20.640625 L 24.523438 15.019531 C 24.523438 14.011719 25.347656 13.183594 26.351562 13.183594 L 31.941406 13.183594 C 32.949219 13.183594 33.769531 14.011719 33.769531 15.019531 L 33.769531 20.640625 "/><path style="fill:none;stroke-width:28;stroke-linecap:round;stroke-linejoin:round;stroke:rgb(9.408569%,9.408569%,12.939453%);stroke-opacity:1;stroke-miterlimit:10;" d="M 2610.182073 1833.156169 C 2610.182073 1727.736383 2524.257895 1641.853854 2418.693904 1641.853854 L 1833.182003 1641.853854 C 1728.027176 1641.853854 1641.693835 1727.736383 1641.693835 1833.156169 L 1641.693835 2418.866874 C 1641.693835 2523.879634 1728.027176 2610.169189 1833.182003 2610.169189 L 2418.693904 2610.169189 C 2524.257895 2610.169189 2610.182073 2523.879634 2610.182073 2418.866874 Z M 2610.182073 1833.156169 " transform="matrix(0.00954693,0,0,-0.00959705,8.850294,38.233513)"/><path style=" stroke:none;fill-rule:nonzero;fill:rgb(49.409485%,85.099792%,34.118652%);fill-opacity:1;" d="M 31.828125 17.332031 L 31.828125 14.726562 L 29.613281 14.726562 L 29.613281 17.332031 L 31.828125 17.332031 "/><path style="fill:none;stroke-width:28;stroke-linecap:round;stroke-linejoin:round;stroke:rgb(9.408569%,9.408569%,12.939453%);stroke-opacity:1;stroke-miterlimit:10;" d="M 2174.832903 2177.907363 L 2406.828184 2177.907363 L 2406.828184 2449.393839 L 2174.832903 2449.393839 Z M 2174.832903 2177.907363 " transform="matrix(0.00954693,0,0,-0.00959705,8.850294,38.233513)"/><path style=" stroke:none;fill-rule:nonzero;fill:rgb(49.409485%,85.099792%,34.118652%);fill-opacity:1;" d="M 31.828125 20.933594 L 31.828125 18.328125 L 29.613281 18.328125 L 29.613281 20.933594 L 31.828125 20.933594 "/><path style="fill:none;stroke-width:28;stroke-linecap:round;stroke-linejoin:round;stroke:rgb(9.408569%,9.408569%,12.939453%);stroke-opacity:1;stroke-miterlimit:10;" d="M 2174.832903 1802.629204 L 2406.828184 1802.629204 L 2406.828184 2074.115681 L 2174.832903 2074.115681 Z M 2174.832903 1802.629204 " transform="matrix(0.00954693,0,0,-0.00959705,8.850294,38.233513)"/><path style=" stroke:none;fill-rule:nonzero;fill:rgb(49.409485%,85.099792%,34.118652%);fill-opacity:1;" d="M 28.683594 17.332031 L 28.683594 14.726562 L 26.464844 14.726562 L 26.464844 17.332031 L 28.683594 17.332031 "/><path style="fill:none;stroke-width:28;stroke-linecap:round;stroke-linejoin:round;stroke:rgb(9.408569%,9.408569%,12.939453%);stroke-opacity:1;stroke-miterlimit:10;" d="M 1845.047723 2177.907363 L 2077.452167 2177.907363 L 2077.452167 2449.393839 L 1845.047723 2449.393839 Z M 1845.047723 2177.907363 " transform="matrix(0.00954693,0,0,-0.00959705,8.850294,38.233513)"/><path style=" stroke:none;fill-rule:nonzero;fill:rgb(49.409485%,85.099792%,34.118652%);fill-opacity:1;" d="M 28.683594 20.933594 L 28.683594 18.328125 L 26.464844 18.328125 L 26.464844 20.933594 L 28.683594 20.933594 "/><path style="fill:none;stroke-width:28;stroke-linecap:round;stroke-linejoin:round;stroke:rgb(9.408569%,9.408569%,12.939453%);stroke-opacity:1;stroke-miterlimit:10;" d="M 1845.047723 1802.629204 L 2077.452167 1802.629204 L 2077.452167 2074.115681 L 1845.047723 2074.115681 Z M 1845.047723 1802.629204 " transform="matrix(0.00954693,0,0,-0.00959705,8.850294,38.233513)"/><g style="fill:rgb(0%,0%,0%);fill-opacity:1;"><g transform="translate(60.725144, 19.719204)"><path style="stroke:none;" d=""/></g></g><g style="fill:rgb(0%,0%,0%);fill-opacity:1;"><g transform="translate(62.92516, 19.719204)"><path style="stroke:none;" d=""/></g></g><g style="fill:rgb(0%,0%,0%);fill-opacity:1;"><g transform="translate(65.124106, 19.719204)"><path style="stroke:none;" d="M 4.484375 0 L 3.78125 0 L 3.78125 -16.40625 L 4.484375 -16.40625 Z M 3.0625 0 L 2.34375 0 L 2.34375 -16.40625 L 3.0625 -16.40625 Z M 1.640625 0 L 0.921875 0 L 0.921875 -16.40625 L 1.640625 -16.40625 Z M 5.921875 -3.5625 L 13.515625 -3.5625 L 13.515625 -2.859375 L 5.921875 -2.859375 L 5.921875 -2.140625 L 13.515625 -2.140625 L 13.515625 -1.421875 L 5.921875 -1.421875 L 5.921875 -0.71875 L 13.515625 -0.71875 L 13.515625 0 L 5.203125 0 L 5.203125 -16.40625 L 13.515625 -16.40625 L 13.515625 -15.703125 L 5.921875 -15.703125 L 5.921875 -14.984375 L 13.515625 -14.984375 L 13.515625 -14.265625 L 5.921875 -14.265625 L 5.921875 -13.5625 L 13.515625 -13.5625 L 13.515625 -12.84375 L 5.921875 -12.84375 L 5.921875 -9.984375 L 9.8125 -9.984375 L 9.8125 -9.28125 L 5.921875 -9.28125 L 5.921875 -8.5625 L 9.8125 -8.5625 L 9.8125 -7.84375 L 5.921875 -7.84375 L 5.921875 -7.140625 L 9.8125 -7.140625 L 9.8125 -6.421875 L 5.921875 -6.421875 Z M 5.921875 -3.5625 "/></g></g><g style="fill:rgb(0%,0%,0%);fill-opacity:1;"><g transform="translate(79.463848, 19.719204)"><path style="stroke:none;" d="M 12.1875 -5.765625 L 11.46875 -7.0625 L 11.46875 -14.265625 L 12.1875 -14.265625 Z M 13.609375 -3.296875 L 12.890625 -4.5 L 12.890625 -14.265625 L 13.609375 -14.265625 Z M 3.78125 -8.515625 L 4.484375 -7.21875 L 4.484375 0 L 3.78125 0 Z M 2.34375 -11.078125 L 3.0625 -9.765625 L 3.0625 0 L 2.34375 0 Z M 2.59375 -14.265625 L 3.421875 -14.265625 L 11.6875 0 L 10.859375 0 Z M 4.28125 -14.265625 L 5.125 -14.265625 L 13.375 0 L 12.53125 0 Z M 5.953125 -14.265625 L 6.78125 -14.265625 L 14.328125 -1.234375 L 14.328125 -14.265625 L 15.03125 -14.265625 L 15.03125 0 L 14.1875 0 Z M 1.640625 -13.046875 L 1.640625 0 L 0.921875 0 L 0.921875 -14.265625 L 1.78125 -14.265625 L 10.015625 0 L 9.1875 0 Z M 1.640625 -13.046875 "/></g></g><g style="fill:rgb(0%,0%,0%);fill-opacity:1;"><g transform="translate(95.438738, 19.719204)"><path style="stroke:none;" d="M 10.96875 -7.234375 L 11.671875 -7.234375 L 11.671875 0 C 10.617188 0.476562 9.523438 0.71875 8.390625 0.71875 C 7.328125 0.71875 6.3125 0.507812 5.34375 0.09375 C 4.375 -0.320312 3.539062 -0.878906 2.84375 -1.578125 C 2.144531 -2.285156 1.585938 -3.125 1.171875 -4.09375 C 0.753906 -5.0625 0.546875 -6.078125 0.546875 -7.140625 C 0.546875 -8.203125 0.753906 -9.21875 1.171875 -10.1875 C 1.585938 -11.15625 2.144531 -11.988281 2.84375 -12.6875 C 3.539062 -13.382812 4.375 -13.941406 5.34375 -14.359375 C 6.3125 -14.773438 7.328125 -14.984375 8.390625 -14.984375 C 9.609375 -14.984375 10.75 -14.71875 11.8125 -14.1875 C 12.882812 -13.664062 13.789062 -12.945312 14.53125 -12.03125 L 13.953125 -11.609375 C 13.285156 -12.429688 12.46875 -13.078125 11.5 -13.546875 C 10.53125 -14.023438 9.492188 -14.265625 8.390625 -14.265625 C 7.429688 -14.265625 6.507812 -14.078125 5.625 -13.703125 C 4.738281 -13.328125 3.976562 -12.820312 3.34375 -12.1875 C 2.707031 -11.550781 2.203125 -10.789062 1.828125 -9.90625 C 1.453125 -9.019531 1.265625 -8.09375 1.265625 -7.125 C 1.265625 -6.164062 1.453125 -5.242188 1.828125 -4.359375 C 2.203125 -3.484375 2.707031 -2.722656 3.34375 -2.078125 C 3.976562 -1.441406 4.738281 -0.9375 5.625 -0.5625 C 6.507812 -0.1875 7.429688 0 8.390625 0 C 9.285156 0 10.144531 -0.15625 10.96875 -0.46875 L 10.96875 -1.203125 C 10.132812 -0.878906 9.273438 -0.71875 8.390625 -0.71875 C 7.523438 -0.71875 6.691406 -0.882812 5.890625 -1.21875 C 5.097656 -1.5625 4.414062 -2.019531 3.84375 -2.59375 C 3.28125 -3.164062 2.828125 -3.847656 2.484375 -4.640625 C 2.140625 -5.429688 1.96875 -6.257812 1.96875 -7.125 C 1.96875 -8 2.140625 -8.832031 2.484375 -9.625 C 2.828125 -10.425781 3.28125 -11.109375 3.84375 -11.671875 C 4.414062 -12.242188 5.097656 -12.703125 5.890625 -13.046875 C 6.691406 -13.390625 7.523438 -13.5625 8.390625 -13.5625 C 9.390625 -13.5625 10.328125 -13.34375 11.203125 -12.90625 C 12.078125 -12.476562 12.816406 -11.890625 13.421875 -11.140625 L 12.859375 -10.6875 C 12.328125 -11.351562 11.671875 -11.878906 10.890625 -12.265625 C 10.109375 -12.648438 9.273438 -12.84375 8.390625 -12.84375 C 7.617188 -12.84375 6.878906 -12.691406 6.171875 -12.390625 C 5.472656 -12.085938 4.867188 -11.679688 4.359375 -11.171875 C 3.847656 -10.660156 3.441406 -10.050781 3.140625 -9.34375 C 2.835938 -8.644531 2.6875 -7.90625 2.6875 -7.125 C 2.6875 -6.351562 2.835938 -5.613281 3.140625 -4.90625 C 3.441406 -4.207031 3.847656 -3.601562 4.359375 -3.09375 C 4.867188 -2.582031 5.472656 -2.175781 6.171875 -1.875 C 6.878906 -1.570312 7.617188 -1.421875 8.390625 -1.421875 C 9.304688 -1.421875 10.164062 -1.609375 10.96875 -1.984375 L 10.96875 -2.71875 C 10.164062 -2.332031 9.304688 -2.140625 8.390625 -2.140625 C 7.484375 -2.140625 6.644531 -2.363281 5.875 -2.8125 C 5.113281 -3.257812 4.507812 -3.863281 4.0625 -4.625 C 3.625 -5.394531 3.40625 -6.234375 3.40625 -7.140625 C 3.40625 -8.046875 3.625 -8.878906 4.0625 -9.640625 C 4.507812 -10.410156 5.113281 -11.015625 5.875 -11.453125 C 6.644531 -11.898438 7.484375 -12.125 8.390625 -12.125 C 9.160156 -12.125 9.890625 -11.957031 10.578125 -11.625 C 11.265625 -11.289062 11.835938 -10.832031 12.296875 -10.25 L 11.734375 -9.8125 C 11.335938 -10.3125 10.847656 -10.703125 10.265625 -10.984375 C 9.679688 -11.273438 9.054688 -11.421875 8.390625 -11.421875 C 7.210938 -11.421875 6.203125 -11 5.359375 -10.15625 C 4.523438 -9.320312 4.109375 -8.316406 4.109375 -7.140625 C 4.109375 -5.960938 4.523438 -4.953125 5.359375 -4.109375 C 6.203125 -3.273438 7.210938 -2.859375 8.390625 -2.859375 C 9.316406 -2.859375 10.175781 -3.082031 10.96875 -3.53125 L 10.96875 -4.25 C 10.1875 -3.789062 9.328125 -3.5625 8.390625 -3.5625 C 7.410156 -3.5625 6.570312 -3.910156 5.875 -4.609375 C 5.175781 -5.304688 4.828125 -6.144531 4.828125 -7.125 C 4.828125 -8.113281 5.175781 -8.957031 5.875 -9.65625 C 6.570312 -10.351562 7.410156 -10.703125 8.390625 -10.703125 C 8.953125 -10.703125 9.472656 -10.582031 9.953125 -10.34375 C 10.441406 -10.101562 10.851562 -9.773438 11.1875 -9.359375 L 10.609375 -8.921875 C 10.035156 -9.628906 9.296875 -9.984375 8.390625 -9.984375 C 7.609375 -9.984375 6.9375 -9.703125 6.375 -9.140625 C 5.820312 -8.585938 5.546875 -7.914062 5.546875 -7.125 C 5.546875 -6.34375 5.820312 -5.671875 6.375 -5.109375 C 6.9375 -4.554688 7.609375 -4.28125 8.390625 -4.28125 C 9.398438 -4.28125 10.257812 -4.5625 10.96875 -5.125 Z M 15.25 -7.234375 L 15.953125 -7.234375 L 15.953125 0 L 15.25 0 Z M 13.8125 -7.234375 L 14.53125 -7.234375 L 14.53125 0 L 13.8125 0 Z M 12.390625 -7.234375 L 13.109375 -7.234375 L 13.109375 0 L 12.390625 0 Z M 12.390625 -7.234375 "/></g></g><g style="fill:rgb(0%,0%,0%);fill-opacity:1;"><g transform="translate(112.226245, 19.719204)"><path style="stroke:none;" d="M 5.203125 -14.265625 L 5.921875 -14.265625 L 5.921875 0 L 5.203125 0 Z M 3.78125 -14.265625 L 4.484375 -14.265625 L 4.484375 0 L 3.78125 0 Z M 2.34375 -14.265625 L 3.0625 -14.265625 L 3.0625 0 L 2.34375 0 Z M 0.921875 -14.265625 L 1.640625 -14.265625 L 1.640625 0 L 0.921875 0 Z M 0.921875 -14.265625 "/></g></g><g style="fill:rgb(0%,0%,0%);fill-opacity:1;"><g transform="translate(119.083952, 19.719204)"><path style="stroke:none;" d="M 12.1875 -5.765625 L 11.46875 -7.0625 L 11.46875 -14.265625 L 12.1875 -14.265625 Z M 13.609375 -3.296875 L 12.890625 -4.5 L 12.890625 -14.265625 L 13.609375 -14.265625 Z M 3.78125 -8.515625 L 4.484375 -7.21875 L 4.484375 0 L 3.78125 0 Z M 2.34375 -11.078125 L 3.0625 -9.765625 L 3.0625 0 L 2.34375 0 Z M 2.59375 -14.265625 L 3.421875 -14.265625 L 11.6875 0 L 10.859375 0 Z M 4.28125 -14.265625 L 5.125 -14.265625 L 13.375 0 L 12.53125 0 Z M 5.953125 -14.265625 L 6.78125 -14.265625 L 14.328125 -1.234375 L 14.328125 -14.265625 L 15.03125 -14.265625 L 15.03125 0 L 14.1875 0 Z M 1.640625 -13.046875 L 1.640625 0 L 0.921875 0 L 0.921875 -14.265625 L 1.78125 -14.265625 L 10.015625 0 L 9.1875 0 Z M 1.640625 -13.046875 "/></g></g><g style="fill:rgb(0%,0%,0%);fill-opacity:1;"><g transform="translate(135.058841, 19.719204)"><path style="stroke:none;" d="M 4.484375 0 L 3.78125 0 L 3.78125 -14.265625 L 4.484375 -14.265625 Z M 3.0625 0 L 2.34375 0 L 2.34375 -14.265625 L 3.0625 -14.265625 Z M 1.640625 0 L 0.921875 0 L 0.921875 -14.265625 L 1.640625 -14.265625 Z M 5.921875 -3.5625 L 12.75 -3.5625 L 12.75 -2.859375 L 5.921875 -2.859375 L 5.921875 -2.140625 L 12.75 -2.140625 L 12.75 -1.421875 L 5.921875 -1.421875 L 5.921875 -0.71875 L 12.75 -0.71875 L 12.75 0 L 5.203125 0 L 5.203125 -14.265625 L 12.75 -14.265625 L 12.75 -13.5625 L 5.921875 -13.5625 L 5.921875 -12.84375 L 12.75 -12.84375 L 12.75 -12.125 L 5.921875 -12.125 L 5.921875 -11.421875 L 12.75 -11.421875 L 12.75 -10.703125 L 5.921875 -10.703125 L 5.921875 -8.921875 L 12.34375 -8.921875 L 12.34375 -8.21875 L 5.921875 -8.21875 L 5.921875 -7.5 L 12.34375 -7.5 L 12.34375 -6.78125 L 5.921875 -6.78125 L 5.921875 -6.078125 L 12.34375 -6.078125 L 12.34375 -5.359375 L 5.921875 -5.359375 Z M 5.921875 -3.5625 "/></g></g><g style="fill:rgb(0%,0%,0%);fill-opacity:1;"><g transform="translate(148.595875, 19.719204)"><path style="stroke:none;" d="M 4.484375 0 L 3.78125 0 L 3.78125 -14.265625 L 4.484375 -14.265625 Z M 3.0625 0 L 2.34375 0 L 2.34375 -14.265625 L 3.0625 -14.265625 Z M 1.640625 0 L 0.921875 0 L 0.921875 -14.265625 L 1.640625 -14.265625 Z M 5.921875 -3.5625 L 12.75 -3.5625 L 12.75 -2.859375 L 5.921875 -2.859375 L 5.921875 -2.140625 L 12.75 -2.140625 L 12.75 -1.421875 L 5.921875 -1.421875 L 5.921875 -0.71875 L 12.75 -0.71875 L 12.75 0 L 5.203125 0 L 5.203125 -14.265625 L 12.75 -14.265625 L 12.75 -13.5625 L 5.921875 -13.5625 L 5.921875 -12.84375 L 12.75 -12.84375 L 12.75 -12.125 L 5.921875 -12.125 L 5.921875 -11.421875 L 12.75 -11.421875 L 12.75 -10.703125 L 5.921875 -10.703125 L 5.921875 -8.921875 L 12.34375 -8.921875 L 12.34375 -8.21875 L 5.921875 -8.21875 L 5.921875 -7.5 L 12.34375 -7.5 L 12.34375 -6.78125 L 5.921875 -6.78125 L 5.921875 -6.078125 L 12.34375 -6.078125 L 12.34375 -5.359375 L 5.921875 -5.359375 Z M 5.921875 -3.5625 "/></g></g><g style="fill:rgb(0%,0%,0%);fill-opacity:1;"><g transform="translate(162.132908, 19.719204)"><path style="stroke:none;" d="M 6.3125 -6.8125 L 10.609375 -6.8125 C 11.179688 -6.8125 11.664062 -6.988281 12.0625 -7.34375 C 12.457031 -7.707031 12.65625 -8.210938 12.65625 -8.859375 C 12.65625 -9.335938 12.445312 -9.765625 12.03125 -10.140625 C 11.625 -10.515625 11.148438 -10.703125 10.609375 -10.703125 L 4.484375 -10.703125 L 4.484375 0 L 3.78125 0 L 3.78125 -11.421875 L 10.609375 -11.421875 C 11.347656 -11.421875 11.992188 -11.160156 12.546875 -10.640625 C 13.097656 -10.128906 13.375 -9.535156 13.375 -8.859375 C 13.375 -8.015625 13.101562 -7.34375 12.5625 -6.84375 C 12.03125 -6.351562 11.378906 -6.109375 10.609375 -6.109375 L 6.3125 -6.109375 Z M 6.3125 -5.390625 L 10.609375 -5.390625 C 11.566406 -5.390625 12.382812 -5.710938 13.0625 -6.359375 C 13.738281 -7.003906 14.078125 -7.835938 14.078125 -8.859375 C 14.078125 -9.722656 13.726562 -10.484375 13.03125 -11.140625 C 12.34375 -11.796875 11.535156 -12.125 10.609375 -12.125 L 3.0625 -12.125 L 3.0625 0 L 2.34375 0 L 2.34375 -12.84375 L 10.609375 -12.84375 C 11.734375 -12.84375 12.710938 -12.441406 13.546875 -11.640625 C 14.378906 -10.847656 14.796875 -9.921875 14.796875 -8.859375 C 14.796875 -7.671875 14.382812 -6.675781 13.5625 -5.875 C 12.738281 -5.070312 11.753906 -4.671875 10.609375 -4.671875 L 6.3125 -4.671875 Z M 6.3125 -3.96875 L 10.609375 -3.96875 C 11.492188 -3.96875 12.304688 -4.175781 13.046875 -4.59375 C 13.796875 -5.019531 14.394531 -5.609375 14.84375 -6.359375 C 15.289062 -7.117188 15.515625 -7.953125 15.515625 -8.859375 C 15.515625 -9.679688 15.289062 -10.453125 14.84375 -11.171875 C 14.40625 -11.898438 13.804688 -12.476562 13.046875 -12.90625 C 12.285156 -13.34375 11.472656 -13.5625 10.609375 -13.5625 L 1.640625 -13.5625 L 1.640625 0 L 0.921875 0 L 0.921875 -14.265625 L 10.609375 -14.265625 C 11.359375 -14.265625 12.078125 -14.117188 12.765625 -13.828125 C 13.460938 -13.535156 14.0625 -13.144531 14.5625 -12.65625 C 15.0625 -12.175781 15.460938 -11.601562 15.765625 -10.9375 C 16.066406 -10.269531 16.21875 -9.578125 16.21875 -8.859375 C 16.21875 -7.703125 15.953125 -6.691406 15.421875 -5.828125 C 14.898438 -4.960938 14.191406 -4.304688 13.296875 -3.859375 L 14.796875 0 L 14.03125 0 L 12.609375 -3.578125 C 12.429688 -3.515625 12.222656 -3.457031 11.984375 -3.40625 L 13.328125 0 L 12.5625 0 L 11.265625 -3.28125 C 11.054688 -3.257812 10.835938 -3.25 10.609375 -3.25 L 11.875 0 L 11.125 0 L 9.875 -3.25 L 9.234375 -3.25 L 10.421875 0 L 9.671875 0 L 8.46875 -3.25 L 6.3125 -3.25 Z M 5.921875 0 L 5.203125 0 L 5.203125 -9.984375 L 10.609375 -9.984375 C 10.984375 -9.984375 11.296875 -9.875 11.546875 -9.65625 C 11.804688 -9.4375 11.9375 -9.171875 11.9375 -8.859375 C 11.9375 -7.972656 11.492188 -7.53125 10.609375 -7.53125 L 6.3125 -7.53125 L 6.3125 -8.25 L 10.609375 -8.25 C 11.023438 -8.25 11.234375 -8.453125 11.234375 -8.859375 C 11.234375 -8.972656 11.171875 -9.070312 11.046875 -9.15625 C 10.921875 -9.238281 10.773438 -9.28125 10.609375 -9.28125 L 5.921875 -9.28125 Z M 5.921875 0 "/></g></g><g style="fill:rgb(49.409485%,85.099792%,34.118652%);fill-opacity:1;"><g transform="translate(60.725144, 48.114221)"><path style="stroke:none;" d=""/></g></g><g style="fill:rgb(49.409485%,85.099792%,34.118652%);fill-opacity:1;"><g transform="translate(62.92516, 48.114221)"><path style="stroke:none;" d=""/></g></g><g style="fill:rgb(49.409485%,85.099792%,34.118652%);fill-opacity:1;"><g transform="translate(65.125175, 48.114221)"><path style="stroke:none;" d=""/></g></g><g style="fill:rgb(49.409485%,85.099792%,34.118652%);fill-opacity:1;"><g transform="translate(67.325191, 48.114221)"><path style="stroke:none;" d=""/></g></g><g style="fill:rgb(49.409485%,85.099792%,34.118652%);fill-opacity:1;"><g transform="translate(69.525207, 48.114221)"><path style="stroke:none;" d=""/></g></g><g style="fill:rgb(49.409485%,85.099792%,34.118652%);fill-opacity:1;"><g transform="translate(71.725223, 48.114221)"><path style="stroke:none;" d=""/></g></g><g style="fill:rgb(49.409485%,85.099792%,34.118652%);fill-opacity:1;"><g transform="translate(73.925238, 48.114221)"><path style="stroke:none;" d=""/></g></g><g style="fill:rgb(49.409485%,85.099792%,34.118652%);fill-opacity:1;"><g transform="translate(76.125254, 48.114221)"><path style="stroke:none;" d=""/></g></g><g style="fill:rgb(49.409485%,85.099792%,34.118652%);fill-opacity:1;"><g transform="translate(78.320992, 48.114221)"><path style="stroke:none;" d="M 5.921875 0 L 5.203125 0 L 5.203125 -16.40625 L 5.921875 -16.40625 Z M 4.484375 0 L 3.78125 0 L 3.78125 -16.40625 L 4.484375 -16.40625 Z M 3.0625 0 L 2.34375 0 L 2.34375 -16.40625 L 3.0625 -16.40625 Z M 1.640625 0 L 0.921875 0 L 0.921875 -16.40625 L 1.640625 -16.40625 Z M 11.125 -8.203125 L 15.328125 -16.40625 L 16.109375 -16.40625 L 11.921875 -8.203125 L 16.109375 0 L 15.328125 0 Z M 9.53125 -8.203125 L 13.71875 -16.40625 L 14.515625 -16.40625 L 10.328125 -8.203125 L 14.515625 0 L 13.71875 0 Z M 7.9375 -8.203125 L 12.125 -16.40625 L 12.921875 -16.40625 L 8.734375 -8.203125 L 12.921875 0 L 12.125 0 Z M 6.328125 -8.203125 L 10.53125 -16.40625 L 11.328125 -16.40625 L 7.125 -8.203125 L 11.328125 0 L 10.53125 0 Z M 6.328125 -8.203125 "/></g></g><g style="fill:rgb(49.409485%,85.099792%,34.118652%);fill-opacity:1;"><g transform="translate(94.88057, 48.114221)"><path style="stroke:none;" d="M 12.1875 -5.765625 L 11.46875 -7.0625 L 11.46875 -14.265625 L 12.1875 -14.265625 Z M 13.609375 -3.296875 L 12.890625 -4.5 L 12.890625 -14.265625 L 13.609375 -14.265625 Z M 3.78125 -8.515625 L 4.484375 -7.21875 L 4.484375 0 L 3.78125 0 Z M 2.34375 -11.078125 L 3.0625 -9.765625 L 3.0625 0 L 2.34375 0 Z M 2.59375 -14.265625 L 3.421875 -14.265625 L 11.6875 0 L 10.859375 0 Z M 4.28125 -14.265625 L 5.125 -14.265625 L 13.375 0 L 12.53125 0 Z M 5.953125 -14.265625 L 6.78125 -14.265625 L 14.328125 -1.234375 L 14.328125 -14.265625 L 15.03125 -14.265625 L 15.03125 0 L 14.1875 0 Z M 1.640625 -13.046875 L 1.640625 0 L 0.921875 0 L 0.921875 -14.265625 L 1.78125 -14.265625 L 10.015625 0 L 9.1875 0 Z M 1.640625 -13.046875 "/></g></g><g style="fill:rgb(49.409485%,85.099792%,34.118652%);fill-opacity:1;"><g transform="translate(110.855459, 48.114221)"><path style="stroke:none;" d="M 6.375 -9.140625 C 5.820312 -8.585938 5.546875 -7.914062 5.546875 -7.125 C 5.546875 -6.34375 5.820312 -5.671875 6.375 -5.109375 C 6.9375 -4.554688 7.609375 -4.28125 8.390625 -4.28125 C 9.179688 -4.28125 9.851562 -4.554688 10.40625 -5.109375 C 10.96875 -5.671875 11.25 -6.34375 11.25 -7.125 C 11.25 -7.914062 10.96875 -8.585938 10.40625 -9.140625 C 9.851562 -9.703125 9.179688 -9.984375 8.390625 -9.984375 C 7.609375 -9.984375 6.9375 -9.703125 6.375 -9.140625 Z M 5.875 -4.609375 C 5.175781 -5.304688 4.828125 -6.144531 4.828125 -7.125 C 4.828125 -8.113281 5.175781 -8.957031 5.875 -9.65625 C 6.570312 -10.351562 7.410156 -10.703125 8.390625 -10.703125 C 9.378906 -10.703125 10.222656 -10.351562 10.921875 -9.65625 C 11.617188 -8.957031 11.96875 -8.113281 11.96875 -7.125 C 11.96875 -6.144531 11.617188 -5.304688 10.921875 -4.609375 C 10.222656 -3.910156 9.378906 -3.5625 8.390625 -3.5625 C 7.410156 -3.5625 6.570312 -3.910156 5.875 -4.609375 Z M 5.359375 -10.15625 C 4.523438 -9.320312 4.109375 -8.316406 4.109375 -7.140625 C 4.109375 -5.960938 4.523438 -4.953125 5.359375 -4.109375 C 6.203125 -3.273438 7.210938 -2.859375 8.390625 -2.859375 C 9.578125 -2.859375 10.585938 -3.273438 11.421875 -4.109375 C 12.253906 -4.953125 12.671875 -5.960938 12.671875 -7.140625 C 12.671875 -8.316406 12.253906 -9.320312 11.421875 -10.15625 C 10.585938 -11 9.578125 -11.421875 8.390625 -11.421875 C 7.210938 -11.421875 6.203125 -11 5.359375 -10.15625 Z M 4.0625 -4.625 C 3.625 -5.394531 3.40625 -6.234375 3.40625 -7.140625 C 3.40625 -8.046875 3.625 -8.878906 4.0625 -9.640625 C 4.507812 -10.410156 5.113281 -11.015625 5.875 -11.453125 C 6.644531 -11.898438 7.484375 -12.125 8.390625 -12.125 C 9.296875 -12.125 10.128906 -11.898438 10.890625 -11.453125 C 11.660156 -11.015625 12.269531 -10.410156 12.71875 -9.640625 C 13.164062 -8.878906 13.390625 -8.046875 13.390625 -7.140625 C 13.390625 -6.234375 13.164062 -5.394531 12.71875 -4.625 C 12.269531 -3.863281 11.660156 -3.257812 10.890625 -2.8125 C 10.128906 -2.363281 9.296875 -2.140625 8.390625 -2.140625 C 7.484375 -2.140625 6.644531 -2.363281 5.875 -2.8125 C 5.113281 -3.257812 4.507812 -3.863281 4.0625 -4.625 Z M 3.140625 -9.34375 C 2.835938 -8.644531 2.6875 -7.90625 2.6875 -7.125 C 2.6875 -6.351562 2.835938 -5.613281 3.140625 -4.90625 C 3.441406 -4.207031 3.847656 -3.601562 4.359375 -3.09375 C 4.867188 -2.582031 5.472656 -2.175781 6.171875 -1.875 C 6.878906 -1.570312 7.617188 -1.421875 8.390625 -1.421875 C 9.160156 -1.421875 9.898438 -1.570312 10.609375 -1.875 C 11.316406 -2.175781 11.925781 -2.582031 12.4375 -3.09375 C 12.945312 -3.601562 13.351562 -4.207031 13.65625 -4.90625 C 13.957031 -5.613281 14.109375 -6.351562 14.109375 -7.125 C 14.109375 -7.90625 13.957031 -8.644531 13.65625 -9.34375 C 13.351562 -10.050781 12.945312 -10.660156 12.4375 -11.171875 C 11.925781 -11.679688 11.316406 -12.085938 10.609375 -12.390625 C 9.898438 -12.691406 9.160156 -12.84375 8.390625 -12.84375 C 7.617188 -12.84375 6.878906 -12.691406 6.171875 -12.390625 C 5.472656 -12.085938 4.867188 -11.679688 4.359375 -11.171875 C 3.847656 -10.660156 3.441406 -10.050781 3.140625 -9.34375 Z M 2.484375 -4.640625 C 2.140625 -5.429688 1.96875 -6.257812 1.96875 -7.125 C 1.96875 -8 2.140625 -8.832031 2.484375 -9.625 C 2.828125 -10.425781 3.28125 -11.109375 3.84375 -11.671875 C 4.414062 -12.242188 5.097656 -12.703125 5.890625 -13.046875 C 6.691406 -13.390625 7.523438 -13.5625 8.390625 -13.5625 C 9.265625 -13.5625 10.097656 -13.390625 10.890625 -13.046875 C 11.679688 -12.703125 12.363281 -12.242188 12.9375 -11.671875 C 13.507812 -11.109375 13.960938 -10.425781 14.296875 -9.625 C 14.640625 -8.832031 14.8125 -8 14.8125 -7.125 C 14.8125 -6.257812 14.640625 -5.429688 14.296875 -4.640625 C 13.960938 -3.847656 13.507812 -3.164062 12.9375 -2.59375 C 12.363281 -2.019531 11.679688 -1.5625 10.890625 -1.21875 C 10.097656 -0.882812 9.265625 -0.71875 8.390625 -0.71875 C 7.523438 -0.71875 6.691406 -0.882812 5.890625 -1.21875 C 5.097656 -1.5625 4.414062 -2.019531 3.84375 -2.59375 C 3.28125 -3.164062 2.828125 -3.847656 2.484375 -4.640625 Z M 1.828125 -9.90625 C 1.453125 -9.019531 1.265625 -8.09375 1.265625 -7.125 C 1.265625 -6.164062 1.453125 -5.242188 1.828125 -4.359375 C 2.203125 -3.484375 2.707031 -2.722656 3.34375 -2.078125 C 3.976562 -1.441406 4.738281 -0.9375 5.625 -0.5625 C 6.507812 -0.1875 7.429688 0 8.390625 0 C 9.359375 0 10.28125 -0.1875 11.15625 -0.5625 C 12.039062 -0.9375 12.800781 -1.441406 13.4375 -2.078125 C 14.082031 -2.722656 14.59375 -3.484375 14.96875 -4.359375 C 15.34375 -5.242188 15.53125 -6.164062 15.53125 -7.125 C 15.53125 -8.09375 15.34375 -9.019531 14.96875 -9.90625 C 14.59375 -10.789062 14.082031 -11.550781 13.4375 -12.1875 C 12.800781 -12.820312 12.039062 -13.328125 11.15625 -13.703125 C 10.28125 -14.078125 9.359375 -14.265625 8.390625 -14.265625 C 7.429688 -14.265625 6.507812 -14.078125 5.625 -13.703125 C 4.738281 -13.328125 3.976562 -12.820312 3.34375 -12.1875 C 2.707031 -11.550781 2.203125 -10.789062 1.828125 -9.90625 Z M 1.171875 -4.09375 C 0.753906 -5.0625 0.546875 -6.078125 0.546875 -7.140625 C 0.546875 -8.203125 0.753906 -9.21875 1.171875 -10.1875 C 1.585938 -11.15625 2.144531 -11.988281 2.84375 -12.6875 C 3.539062 -13.382812 4.375 -13.941406 5.34375 -14.359375 C 6.3125 -14.773438 7.328125 -14.984375 8.390625 -14.984375 C 9.453125 -14.984375 10.46875 -14.773438 11.4375 -14.359375 C 12.40625 -13.941406 13.238281 -13.382812 13.9375 -12.6875 C 14.644531 -11.988281 15.207031 -11.15625 15.625 -10.1875 C 16.039062 -9.21875 16.25 -8.203125 16.25 -7.140625 C 16.25 -6.078125 16.039062 -5.0625 15.625 -4.09375 C 15.207031 -3.125 14.644531 -2.285156 13.9375 -1.578125 C 13.238281 -0.878906 12.40625 -0.320312 11.4375 0.09375 C 10.46875 0.507812 9.453125 0.71875 8.390625 0.71875 C 7.328125 0.71875 6.3125 0.507812 5.34375 0.09375 C 4.375 -0.320312 3.539062 -0.878906 2.84375 -1.578125 C 2.144531 -2.285156 1.585938 -3.125 1.171875 -4.09375 Z M 1.171875 -4.09375 "/></g></g><g style="fill:rgb(49.409485%,85.099792%,34.118652%);fill-opacity:1;"><g transform="translate(127.771796, 48.114221)"><path style="stroke:none;" d="M 15 -4.59375 C 15.132812 -4.582031 15.300781 -4.578125 15.5 -4.578125 C 15.695312 -4.578125 15.863281 -4.582031 16 -4.59375 C 16.132812 -4.601562 16.273438 -4.628906 16.421875 -4.671875 C 16.566406 -4.710938 16.679688 -4.769531 16.765625 -4.84375 C 16.847656 -4.914062 16.914062 -5.019531 16.96875 -5.15625 C 17.03125 -5.289062 17.0625 -5.457031 17.0625 -5.65625 L 17.0625 -14.265625 L 17.78125 -14.265625 L 17.78125 -5.65625 C 17.78125 -4.457031 17.019531 -3.859375 15.5 -3.859375 C 14.726562 -3.859375 14.160156 -4.003906 13.796875 -4.296875 C 13.742188 -4.046875 13.679688 -3.820312 13.609375 -3.625 C 14.109375 -3.3125 14.738281 -3.15625 15.5 -3.15625 C 16.382812 -3.15625 17.101562 -3.359375 17.65625 -3.765625 C 18.21875 -4.179688 18.5 -4.8125 18.5 -5.65625 L 18.5 -14.265625 L 19.203125 -14.265625 L 19.203125 -5.65625 C 19.203125 -4.613281 18.851562 -3.816406 18.15625 -3.265625 C 17.457031 -2.710938 16.570312 -2.4375 15.5 -2.4375 C 14.65625 -2.4375 13.9375 -2.609375 13.34375 -2.953125 C 13.238281 -2.742188 13.125 -2.539062 13 -2.34375 C 13.71875 -1.925781 14.550781 -1.71875 15.5 -1.71875 C 16.113281 -1.71875 16.6875 -1.800781 17.21875 -1.96875 C 17.75 -2.144531 18.210938 -2.394531 18.609375 -2.71875 C 19.015625 -3.050781 19.332031 -3.46875 19.5625 -3.96875 C 19.800781 -4.46875 19.921875 -5.03125 19.921875 -5.65625 L 19.921875 -14.265625 L 20.640625 -14.265625 L 20.640625 -5.65625 C 20.640625 -4.695312 20.40625 -3.859375 19.9375 -3.140625 C 19.46875 -2.429688 18.847656 -1.898438 18.078125 -1.546875 C 17.304688 -1.191406 16.445312 -1.015625 15.5 -1.015625 C 14.382812 -1.015625 13.40625 -1.269531 12.5625 -1.78125 C 12.382812 -1.5625 12.21875 -1.390625 12.0625 -1.265625 C 13.039062 -0.617188 14.1875 -0.296875 15.5 -0.296875 C 16.570312 -0.296875 17.546875 -0.503906 18.421875 -0.921875 C 19.304688 -1.347656 20.015625 -1.972656 20.546875 -2.796875 C 21.078125 -3.617188 21.34375 -4.570312 21.34375 -5.65625 L 21.34375 -14.265625 L 22.0625 -14.265625 L 22.0625 -5.65625 C 22.0625 -4.738281 21.882812 -3.894531 21.53125 -3.125 C 21.1875 -2.363281 20.71875 -1.722656 20.125 -1.203125 C 19.539062 -0.691406 18.847656 -0.289062 18.046875 0 C 17.242188 0.28125 16.394531 0.421875 15.5 0.421875 C 13.925781 0.421875 12.582031 0.015625 11.46875 -0.796875 C 10.3125 0.015625 8.945312 0.421875 7.375 0.421875 C 6.476562 0.421875 5.628906 0.28125 4.828125 0 C 4.023438 -0.289062 3.328125 -0.691406 2.734375 -1.203125 C 2.148438 -1.722656 1.679688 -2.363281 1.328125 -3.125 C 0.984375 -3.894531 0.8125 -4.738281 0.8125 -5.65625 L 0.8125 -14.265625 L 1.53125 -14.265625 L 1.53125 -5.65625 C 1.53125 -4.84375 1.679688 -4.09375 1.984375 -3.40625 C 2.296875 -2.726562 2.710938 -2.164062 3.234375 -1.71875 C 3.765625 -1.269531 4.382812 -0.921875 5.09375 -0.671875 C 5.8125 -0.421875 6.570312 -0.296875 7.375 -0.296875 C 8.425781 -0.296875 9.398438 -0.535156 10.296875 -1.015625 C 11.191406 -1.492188 11.898438 -2.144531 12.421875 -2.96875 C 12.953125 -3.789062 13.21875 -4.6875 13.21875 -5.65625 L 13.21875 -14.265625 L 13.9375 -14.265625 L 13.9375 -5.65625 C 13.9375 -5.457031 13.960938 -5.289062 14.015625 -5.15625 C 14.078125 -5.019531 14.148438 -4.914062 14.234375 -4.84375 C 14.316406 -4.769531 14.429688 -4.710938 14.578125 -4.671875 C 14.722656 -4.628906 14.863281 -4.601562 15 -4.59375 Z M 9.65625 -14.265625 L 9.65625 -5.65625 C 9.65625 -4.457031 8.894531 -3.859375 7.375 -3.859375 C 5.851562 -3.859375 5.09375 -4.457031 5.09375 -5.65625 L 5.09375 -14.265625 L 5.8125 -14.265625 L 5.8125 -5.65625 C 5.8125 -5.457031 5.835938 -5.289062 5.890625 -5.15625 C 5.941406 -5.019531 6.007812 -4.914062 6.09375 -4.84375 C 6.1875 -4.769531 6.304688 -4.710938 6.453125 -4.671875 C 6.597656 -4.628906 6.738281 -4.601562 6.875 -4.59375 C 7.007812 -4.582031 7.175781 -4.578125 7.375 -4.578125 C 7.570312 -4.578125 7.738281 -4.582031 7.875 -4.59375 C 8.007812 -4.601562 8.148438 -4.628906 8.296875 -4.671875 C 8.441406 -4.710938 8.554688 -4.769531 8.640625 -4.84375 C 8.722656 -4.914062 8.789062 -5.019531 8.84375 -5.15625 C 8.90625 -5.289062 8.9375 -5.457031 8.9375 -5.65625 L 8.9375 -14.265625 Z M 11.078125 -14.265625 L 11.078125 -5.65625 C 11.078125 -4.613281 10.726562 -3.816406 10.03125 -3.265625 C 9.332031 -2.710938 8.445312 -2.4375 7.375 -2.4375 C 6.300781 -2.4375 5.414062 -2.710938 4.71875 -3.265625 C 4.019531 -3.816406 3.671875 -4.613281 3.671875 -5.65625 L 3.671875 -14.265625 L 4.375 -14.265625 L 4.375 -5.65625 C 4.375 -4.8125 4.648438 -4.179688 5.203125 -3.765625 C 5.765625 -3.359375 6.488281 -3.15625 7.375 -3.15625 C 8.257812 -3.15625 8.976562 -3.359375 9.53125 -3.765625 C 10.082031 -4.179688 10.359375 -4.8125 10.359375 -5.65625 L 10.359375 -14.265625 Z M 12.5 -14.265625 L 12.5 -5.65625 C 12.5 -4.695312 12.265625 -3.859375 11.796875 -3.140625 C 11.335938 -2.429688 10.722656 -1.898438 9.953125 -1.546875 C 9.179688 -1.191406 8.320312 -1.015625 7.375 -1.015625 C 6.425781 -1.015625 5.566406 -1.191406 4.796875 -1.546875 C 4.023438 -1.898438 3.40625 -2.429688 2.9375 -3.140625 C 2.46875 -3.859375 2.234375 -4.695312 2.234375 -5.65625 L 2.234375 -14.265625 L 2.953125 -14.265625 L 2.953125 -5.65625 C 2.953125 -5.03125 3.066406 -4.46875 3.296875 -3.96875 C 3.523438 -3.46875 3.84375 -3.050781 4.25 -2.71875 C 4.65625 -2.394531 5.125 -2.144531 5.65625 -1.96875 C 6.1875 -1.800781 6.757812 -1.71875 7.375 -1.71875 C 7.988281 -1.71875 8.5625 -1.800781 9.09375 -1.96875 C 9.625 -2.144531 10.085938 -2.394531 10.484375 -2.71875 C 10.890625 -3.050781 11.207031 -3.46875 11.4375 -3.96875 C 11.675781 -4.46875 11.796875 -5.03125 11.796875 -5.65625 L 11.796875 -14.265625 Z M 12.5 -14.265625 "/></g></g><g style="fill:rgb(49.409485%,85.099792%,34.118652%);fill-opacity:1;"><g transform="translate(150.703492, 48.114221)"><path style="stroke:none;" d="M 7.484375 -6.78125 L 6.359375 -6.78125 C 4.960938 -6.78125 3.890625 -7.0625 3.140625 -7.625 C 2.398438 -8.195312 2.03125 -8.976562 2.03125 -9.96875 C 2.03125 -10.894531 2.46875 -11.664062 3.34375 -12.28125 C 4.226562 -12.894531 5.460938 -13.203125 7.046875 -13.203125 C 8.097656 -13.203125 9.082031 -13.054688 10 -12.765625 C 10.914062 -12.484375 11.679688 -12.078125 12.296875 -11.546875 L 11.734375 -11.09375 C 11.191406 -11.539062 10.507812 -11.882812 9.6875 -12.125 C 8.875 -12.375 7.992188 -12.5 7.046875 -12.5 C 5.648438 -12.5 4.582031 -12.257812 3.84375 -11.78125 C 3.113281 -11.300781 2.75 -10.695312 2.75 -9.96875 C 2.75 -9.175781 3.050781 -8.566406 3.65625 -8.140625 C 4.257812 -7.710938 5.160156 -7.5 6.359375 -7.5 L 7.4375 -7.5 C 8.84375 -7.5 9.921875 -7.21875 10.671875 -6.65625 C 11.421875 -6.09375 11.796875 -5.316406 11.796875 -4.328125 C 11.796875 -3.398438 11.359375 -2.625 10.484375 -2 C 9.609375 -1.382812 8.375 -1.078125 6.78125 -1.078125 C 5.726562 -1.078125 4.742188 -1.222656 3.828125 -1.515625 C 2.910156 -1.804688 2.148438 -2.21875 1.546875 -2.75 L 2.09375 -3.1875 C 2.632812 -2.75 3.316406 -2.40625 4.140625 -2.15625 C 4.960938 -1.914062 5.84375 -1.796875 6.78125 -1.796875 C 8.175781 -1.796875 9.242188 -2.03125 9.984375 -2.5 C 10.722656 -2.976562 11.09375 -3.585938 11.09375 -4.328125 C 11.09375 -5.117188 10.789062 -5.722656 10.1875 -6.140625 C 9.582031 -6.566406 8.679688 -6.78125 7.484375 -6.78125 Z M 7.484375 -5.359375 L 6.359375 -5.359375 C 4.515625 -5.359375 3.09375 -5.773438 2.09375 -6.609375 C 1.101562 -7.453125 0.609375 -8.570312 0.609375 -9.96875 C 0.609375 -10.613281 0.75 -11.210938 1.03125 -11.765625 C 1.3125 -12.328125 1.71875 -12.820312 2.25 -13.25 C 2.78125 -13.675781 3.457031 -14.015625 4.28125 -14.265625 C 5.113281 -14.515625 6.035156 -14.640625 7.046875 -14.640625 C 8.316406 -14.640625 9.507812 -14.445312 10.625 -14.0625 C 11.738281 -13.675781 12.664062 -13.132812 13.40625 -12.4375 L 12.828125 -12.015625 C 12.148438 -12.617188 11.304688 -13.085938 10.296875 -13.421875 C 9.285156 -13.753906 8.203125 -13.921875 7.046875 -13.921875 C 5.265625 -13.921875 3.863281 -13.546875 2.84375 -12.796875 C 1.820312 -12.046875 1.3125 -11.101562 1.3125 -9.96875 C 1.3125 -8.769531 1.75 -7.820312 2.625 -7.125 C 3.5 -6.425781 4.742188 -6.078125 6.359375 -6.078125 L 7.4375 -6.078125 C 9.394531 -6.078125 10.375 -5.492188 10.375 -4.328125 C 10.375 -3.796875 10.070312 -3.359375 9.46875 -3.015625 C 8.875 -2.671875 7.976562 -2.5 6.78125 -2.5 C 5.945312 -2.5 5.171875 -2.597656 4.453125 -2.796875 C 3.734375 -2.992188 3.140625 -3.273438 2.671875 -3.640625 L 3.234375 -4.078125 C 4.054688 -3.503906 5.238281 -3.21875 6.78125 -3.21875 C 7.78125 -3.21875 8.507812 -3.316406 8.96875 -3.515625 C 9.425781 -3.722656 9.65625 -3.992188 9.65625 -4.328125 C 9.65625 -4.703125 9.492188 -4.96875 9.171875 -5.125 C 8.847656 -5.28125 8.285156 -5.359375 7.484375 -5.359375 Z M 7.484375 -8.21875 L 6.359375 -8.21875 C 4.421875 -8.21875 3.453125 -8.800781 3.453125 -9.96875 C 3.453125 -10.5 3.75 -10.929688 4.34375 -11.265625 C 4.945312 -11.609375 5.847656 -11.78125 7.046875 -11.78125 C 7.890625 -11.78125 8.671875 -11.679688 9.390625 -11.484375 C 10.109375 -11.296875 10.703125 -11.019531 11.171875 -10.65625 L 10.609375 -10.21875 C 9.773438 -10.78125 8.585938 -11.0625 7.046875 -11.0625 C 6.054688 -11.0625 5.328125 -10.957031 4.859375 -10.75 C 4.398438 -10.550781 4.171875 -10.289062 4.171875 -9.96875 C 4.171875 -9.59375 4.332031 -9.320312 4.65625 -9.15625 C 4.976562 -9 5.546875 -8.921875 6.359375 -8.921875 L 7.484375 -8.921875 C 9.316406 -8.921875 10.734375 -8.503906 11.734375 -7.671875 C 12.734375 -6.835938 13.234375 -5.722656 13.234375 -4.328125 C 13.234375 -3.679688 13.085938 -3.078125 12.796875 -2.515625 C 12.515625 -1.953125 12.109375 -1.457031 11.578125 -1.03125 C 11.046875 -0.601562 10.367188 -0.265625 9.546875 -0.015625 C 8.722656 0.222656 7.800781 0.34375 6.78125 0.34375 C 5.507812 0.34375 4.316406 0.148438 3.203125 -0.234375 C 2.097656 -0.617188 1.175781 -1.160156 0.4375 -1.859375 L 1.015625 -2.28125 C 1.679688 -1.675781 2.519531 -1.203125 3.53125 -0.859375 C 4.539062 -0.523438 5.625 -0.359375 6.78125 -0.359375 C 8.570312 -0.359375 9.972656 -0.734375 10.984375 -1.484375 C 12.003906 -2.242188 12.515625 -3.191406 12.515625 -4.328125 C 12.515625 -5.515625 12.078125 -6.457031 11.203125 -7.15625 C 10.335938 -7.863281 9.097656 -8.21875 7.484375 -8.21875 Z M 7.484375 -8.21875 "/></g></g><g style="fill:rgb(49.409485%,85.099792%,34.118652%);fill-opacity:1;"><g transform="translate(164.563305, 48.114221)"><path style="stroke:none;" d=""/></g></g></g></svg>